<?xml version="1.0" standalone="no"?>
<!DOCTYPE svg PUBLIC "-//W3C//DTD SVG 20010904//EN"
 "http://www.w3.org/TR/2001/REC-SVG-20010904/DTD/svg10.dtd">
<svg version="1.0" xmlns="http://www.w3.org/2000/svg"
 width="300.000000pt" height="300.000000pt" viewBox="0 0 300.000000 300.000000"
 preserveAspectRatio="xMidYMid meet">
<metadata>
Created by potrace 1.10, written by Peter Selinger 2001-2011
</metadata>
<g transform="translate(0.000000,300.000000) scale(0.100000,-0.100000)"
fill="#000000" stroke="none">
<path d="M1399 2434 c-48 -14 -134 -82 -144 -113 -3 -10 -19 -24 -36 -31 -16
-7 -36 -22 -44 -34 -20 -27 -19 -115 1 -144 8 -12 14 -36 12 -53 l-3 -32 -49
41 c-60 50 -94 59 -135 37 -80 -41 -33 -128 119 -223 l65 -41 0 -80 c0 -69 3
-83 23 -103 12 -13 22 -28 22 -34 0 -5 -29 -31 -65 -57 -36 -27 -84 -73 -107
-103 -22 -30 -46 -54 -53 -54 -24 0 -65 -60 -65 -95 0 -19 4 -36 8 -39 5 -3 7
-50 4 -104 -5 -101 6 -174 34 -240 9 -20 16 -56 15 -79 -2 -35 2 -47 25 -68
15 -14 39 -25 53 -25 16 0 44 -16 71 -40 l45 -39 -53 20 c-48 17 -57 18 -82 5
-26 -13 -30 -12 -47 6 -10 11 -29 26 -43 33 -27 14 -233 75 -253 75 -7 0 -66
-42 -131 -94 -124 -98 -142 -106 -238 -106 -27 0 -48 -4 -48 -10 0 -5 -20 -10
-45 -10 -25 0 -45 -4 -45 -10 0 -6 32 -10 78 -9 56 1 69 3 47 9 -16 4 509 8
1168 9 658 0 1197 5 1197 10 0 4 -30 11 -67 14 -45 4 -71 12 -78 22 -5 8 -98
44 -205 80 l-195 64 -125 -24 c-69 -14 -126 -25 -127 -25 -1 0 -13 -12 -27
-26 -16 -18 -36 -27 -60 -29 -20 -1 -36 1 -36 4 1 3 19 20 42 36 54 39 57 41
96 56 40 14 66 60 58 100 -3 16 3 52 14 85 43 124 35 268 -21 392 -16 36 -29
78 -29 94 0 16 -5 38 -10 49 -12 22 -60 49 -88 49 -25 0 -85 46 -89 67 -1 10
4 23 11 28 25 19 36 54 36 112 0 66 11 81 116 156 55 40 104 102 104 133 0 29
-26 61 -55 68 -32 8 -91 -17 -131 -55 l-31 -30 -6 27 c-3 17 1 37 9 48 22 32
18 128 -7 160 -11 14 -28 26 -38 26 -10 0 -24 12 -32 26 -22 41 -96 101 -146
118 -56 19 -122 19 -184 0z m196 -34 c65 -27 145 -124 145 -175 0 -29 -26 -15
-44 25 -27 62 -53 70 -212 70 l-136 0 -34 -34 c-19 -19 -34 -43 -34 -55 0 -14
-6 -21 -20 -21 -11 0 -20 5 -20 10 0 23 29 78 59 113 79 90 187 114 296 67z
m66 -138 c32 -36 37 -77 18 -145 -13 -47 -63 -106 -106 -123 -74 -31 -186 -6
-231 51 -39 50 -55 141 -33 194 23 53 49 61 194 59 l129 -3 29 -33z m-442 -47
c-5 -27 -7 -65 -3 -85 l5 -35 -20 24 c-28 31 -28 90 0 125 12 15 23 26 24 24
2 -2 -1 -25 -6 -53z m565 33 c26 -37 16 -148 -12 -148 -5 0 -8 28 -7 63 0 34
-4 72 -8 85 -11 29 7 29 27 0z m-506 -75 c-5 -26 -38 -29 -38 -4 0 15 6 21 21
21 14 0 19 -5 17 -17z m470 0 c-5 -26 -38 -29 -38 -4 0 15 6 21 21 21 14 0 19
-5 17 -17z m-458 -73 c25 -93 110 -145 223 -138 93 6 163 61 186 144 8 33 41
46 41 17 -1 -31 -36 -97 -70 -130 -125 -122 -333 -85 -406 72 -29 61 -30 75
-4 75 14 0 22 -11 30 -40z m-202 -26 c21 -14 21 -17 6 -45 -8 -16 -26 -35 -40
-41 -23 -11 -28 -9 -45 12 -48 64 12 121 79 74z m890 4 c29 -29 -2 -102 -41
-96 -23 3 -70 65 -61 80 16 25 83 35 102 16z m-729 -42 c27 -44 27 -47 -9 -35
-24 9 -30 17 -30 40 0 38 14 37 39 -5z m521 6 c0 -21 -7 -32 -26 -41 -36 -16
-39 -10 -13 33 25 43 39 46 39 8z m-630 -17 c0 -22 -50 -75 -71 -75 -26 0 -24
7 10 36 17 14 33 34 36 45 7 21 25 17 25 -6z m767 -48 c28 -12 30 -27 4 -27
-20 0 -71 53 -71 74 0 27 14 25 28 -5 9 -17 26 -36 39 -42z m-701 18 c26 -14
58 -25 72 -25 13 0 37 -11 54 -25 28 -24 113 -55 149 -55 45 0 121 24 166 52
26 17 60 32 75 33 15 2 43 12 63 24 20 11 38 21 39 21 2 0 7 -11 10 -25 4 -14
20 -34 36 -44 l30 -18 -48 -39 c-58 -46 -113 -113 -127 -153 -8 -24 -13 -28
-27 -20 -12 7 -18 7 -18 -1 0 -5 4 -10 10 -10 18 0 40 -58 40 -105 0 -71 -22
-113 -63 -120 -71 -14 -81 -7 -88 60 -4 45 -8 54 -13 38 -15 -41 -129 -39
-162 4 -13 16 -14 10 -8 -44 l7 -63 -52 0 c-47 0 -53 3 -71 32 -23 38 -35 107
-26 144 4 14 18 36 32 49 21 19 22 23 6 18 -16 -4 -20 2 -25 34 -8 45 -52 95
-129 144 l-48 31 30 28 c17 15 30 35 30 44 0 21 0 21 56 -9z m33 -232 c12 -41
4 -96 -13 -90 -6 2 -12 33 -14 71 -3 73 10 82 27 19z m533 -37 c-8 -53 -32
-77 -32 -31 0 25 28 91 35 83 2 -2 1 -26 -3 -52z m-532 -172 c0 -8 8 -31 18
-52 13 -25 17 -51 14 -81 -2 -24 1 -53 8 -67 24 -43 92 -51 134 -15 16 14 18
27 13 106 l-5 90 68 0 68 0 -1 -87 c-1 -72 1 -90 17 -107 24 -27 89 -44 132
-36 72 13 98 102 46 154 -26 27 -27 29 -13 67 8 21 16 41 18 43 7 10 115 -95
148 -145 59 -89 85 -173 85 -279 0 -151 -46 -269 -142 -363 -75 -74 -106 -92
-155 -92 -32 0 -50 -7 -75 -28 -33 -29 -33 -29 -69 -13 l-37 17 19 23 c55 68
-28 152 -118 121 -41 -15 -70 -68 -54 -98 10 -20 9 -22 -11 -22 -13 0 -33 -6
-44 -14 -18 -13 -25 -12 -65 7 -64 32 -179 151 -212 219 -112 235 -48 500 157
649 39 29 56 30 56 3z m670 -64 c20 -37 10 -40 -20 -7 -16 19 -30 38 -30 41 0
12 40 -14 50 -34z m-502 -70 c4 -54 -19 -82 -62 -78 -37 4 -56 37 -49 88 l5
35 51 -1 52 -2 3 -42z m285 26 c23 -56 -26 -126 -75 -107 -30 11 -38 29 -38
84 l0 42 52 0 c43 0 55 -4 61 -19z m67 -51 c0 -37 -32 -75 -63 -75 -13 0 -17
3 -11 8 20 13 34 50 34 93 0 41 0 42 20 24 12 -11 20 -31 20 -50z m-772 -52
c-26 -61 -28 -63 -28 -27 0 25 30 74 45 74 2 0 -5 -21 -17 -47z m972 -477 c0
-16 -50 -80 -57 -73 -4 4 47 87 54 87 2 0 3 -6 3 -14z m-907 -48 c16 -21 23
-38 18 -38 -17 0 -51 42 -51 64 0 10 1 17 3 15 2 -2 15 -21 30 -41z m-198 -62
c63 -17 111 -37 129 -52 15 -14 27 -26 25 -27 -2 -1 -18 -12 -35 -24 -30 -20
-43 -22 -229 -23 -109 0 -210 -3 -224 -6 l-26 -5 30 25 c77 66 183 144 189
139 3 -4 6 -19 6 -33 0 -33 11 -43 70 -66 25 -9 52 -23 61 -31 24 -20 35 -16
15 6 -10 11 -42 29 -71 41 -52 21 -65 37 -65 84 0 13 3 16 13 9 6 -6 57 -22
112 -37z m632 33 c32 -12 43 -26 43 -56 0 -39 -25 -53 -83 -46 -77 8 -98 43
-52 88 26 27 49 31 92 14z m861 -89 c86 -28 164 -55 172 -58 8 -4 -111 -9
-265 -12 -154 -3 -281 -4 -283 -3 -2 1 4 12 12 26 9 13 48 39 87 57 88 41 84
51 -6 13 -47 -20 -74 -38 -89 -60 -11 -18 -25 -33 -29 -33 -4 0 -24 11 -43 23
l-34 24 21 19 c26 24 199 63 257 59 24 -2 114 -27 200 -55z m-1222 -60 c8 0
14 -3 14 -7 0 -5 -38 -8 -84 -8 -46 0 -83 2 -80 4 2 2 25 17 51 32 l48 27 18
-24 c10 -13 25 -24 33 -24z m97 13 c15 -3 27 -9 27 -14 0 -22 -83 -13 -125 15
-40 26 -29 36 23 20 26 -8 59 -17 75 -21z m207 8 c0 -13 -48 -29 -107 -35 -29
-3 -53 -3 -53 -2 0 2 15 13 33 25 32 21 127 30 127 12z m444 -17 c18 -13 13
-14 -51 -14 -65 0 -123 14 -123 29 0 12 155 -1 174 -15z m-370 1 c20 -8 36
-17 36 -19 0 -2 -29 -3 -65 -3 -36 1 -65 4 -65 6 0 7 35 30 46 31 6 0 28 -7
48 -15z m191 3 c37 -17 31 -23 -25 -25 -51 -1 -59 4 -38 25 15 15 30 15 63 0z"/>
<path d="M1450 2360 c0 -5 18 -10 40 -10 22 0 40 5 40 10 0 6 -18 10 -40 10
-22 0 -40 -4 -40 -10z"/>
<path d="M1472 2243 c18 -48 -1 -83 -46 -83 -26 0 -39 7 -55 28 -16 21 -20 23
-21 10 0 -30 32 -58 67 -58 63 0 104 73 64 113 l-21 21 12 -31z"/>
<path d="M1586 2191 c-4 -6 -5 -15 -2 -20 3 -5 -1 -30 -9 -57 -8 -26 -12 -50
-10 -52 8 -8 45 64 45 88 0 32 -15 56 -24 41z"/>
<path d="M1637 2112 c-4 -18 -19 -44 -33 -57 -15 -14 -25 -28 -22 -31 3 -3 20
8 37 25 18 17 29 31 25 31 -3 0 -2 6 4 13 5 6 6 21 2 32 -6 16 -8 14 -13 -13z"/>
<path d="M1377 1832 c-12 -13 -17 -37 -17 -76 0 -94 3 -96 129 -96 131 0 136
4 136 97 0 86 -10 93 -135 93 -81 0 -100 -3 -113 -18z m218 -77 l0 -70 -105 0
-105 0 -3 58 c-4 84 2 88 117 85 l96 -3 0 -70z"/>
<path d="M1437 1803 c-10 -9 -8 -51 2 -57 5 -3 7 -15 4 -26 -4 -15 0 -20 16
-20 22 0 28 19 11 36 -7 7 -1 9 20 6 24 -3 28 -7 19 -18 -9 -11 -7 -15 6 -20
20 -8 42 10 25 21 -8 5 -7 12 5 25 11 12 14 26 10 39 -5 18 -15 21 -59 21 -29
0 -56 -3 -59 -7z m98 -23 c0 -10 -12 -16 -33 -18 -45 -4 -63 3 -56 23 9 22 89
17 89 -5z"/>
<path d="M1273 1615 c-10 -28 10 -70 35 -73 22 -3 23 0 20 40 -2 36 -7 44 -26
46 -14 2 -25 -3 -29 -13z m39 -32 c1 -12 -1 -23 -7 -25 -5 -2 -11 13 -13 32
-4 38 14 32 20 -7z"/>
<path d="M1661 1611 c-25 -45 -1 -93 33 -68 12 9 17 23 14 47 -4 40 -31 52
-47 21z m34 -23 c-11 -36 -25 -45 -25 -17 0 27 7 39 22 39 5 0 6 -10 3 -22z"/>
<path d="M1163 1510 c-53 -32 -56 -101 -4 -108 24 -4 81 47 81 73 0 24 -19 55
-33 55 -7 0 -27 -9 -44 -20z m55 -28 c4 -25 -30 -62 -58 -62 -30 0 -26 44 7
70 31 24 47 22 51 -8z"/>
<path d="M1229 1410 c-20 -22 -36 -30 -60 -30 -24 0 -30 -3 -22 -11 19 -19 81
8 98 42 19 36 17 36 -16 -1z"/>
<path d="M1736 1293 c-19 -10 -43 -13 -68 -10 -21 3 -36 1 -32 -4 10 -17 91
-10 115 11 29 23 24 25 -15 3z"/>
<path d="M1823 1298 c-43 -21 -41 -83 3 -94 54 -14 97 52 58 90 -18 18 -30 19
-61 4z m54 -24 c9 -24 -10 -49 -38 -49 -27 0 -37 28 -19 50 17 20 49 19 57 -1z"/>
<path d="M1090 1280 c-49 -49 -28 -132 44 -171 102 -54 186 31 126 128 -36 60
-129 84 -170 43z m135 -37 c24 -25 35 -45 35 -66 0 -84 -108 -91 -161 -11 -38
58 -14 114 51 114 32 0 46 -7 75 -37z"/>
<path d="M1296 1240 c3 -14 9 -47 11 -73 4 -41 1 -53 -18 -73 -12 -13 -28 -24
-35 -24 -7 0 -16 -4 -19 -10 -13 -22 27 -8 57 19 29 26 33 35 32 78 0 26 -8
62 -18 78 -15 26 -16 27 -10 5z"/>
<path d="M1626 1124 c-33 -32 -9 -94 35 -94 52 0 74 42 49 91 -13 23 -62 26
-84 3z m73 -18 c18 -22 -3 -56 -34 -56 -18 0 -26 7 -31 24 -3 14 -3 30 1 35 9
16 51 13 64 -3z"/>
<path d="M1871 1044 c-40 -51 -49 -127 -18 -152 46 -37 118 92 91 162 -10 25
-50 19 -73 -10z m57 -44 c-4 -35 -13 -59 -29 -76 -22 -24 -24 -24 -37 -7 -24
33 15 133 51 133 17 0 19 -6 15 -50z"/>
<path d="M1050 1050 c0 -5 6 -10 14 -10 7 0 19 -7 26 -15 7 -9 15 -13 18 -10
8 7 -29 45 -45 45 -7 0 -13 -4 -13 -10z"/>
<path d="M1717 1030 c-10 -12 -30 -20 -49 -21 -27 0 -29 -2 -13 -8 11 -4 27
-6 37 -3 19 5 54 40 47 47 -3 2 -13 -4 -22 -15z"/>
<path d="M1042 1018 c-27 -27 -5 -88 33 -88 33 0 43 35 18 68 -23 31 -35 36
-51 20z m38 -29 c7 -11 9 -27 6 -36 -9 -22 -36 3 -36 33 0 30 16 31 30 3z"/>
<path d="M1189 961 c-17 -18 -29 -40 -29 -56 0 -38 50 -85 90 -85 34 0 90 46
90 74 0 29 -24 68 -51 82 -42 21 -67 17 -100 -15z m114 -18 c23 -21 22 -58 -3
-83 -55 -55 -155 22 -107 82 24 31 75 32 110 1z"/>
<path d="M1460 841 c8 -6 22 -11 31 -11 9 0 29 -10 44 -22 18 -14 26 -17 23
-7 -5 16 -40 35 -83 44 -23 5 -26 4 -15 -4z"/>
<path d="M1170 822 c0 -18 69 -44 88 -33 14 9 12 10 -13 11 -17 0 -41 7 -53
16 -12 8 -22 11 -22 6z"/>
<path d="M1678 815 c-38 -21 -46 -54 -18 -77 27 -22 40 -22 85 -4 42 18 64 58
45 81 -16 19 -76 19 -112 0z m102 -19 c0 -22 -49 -56 -80 -56 -38 0 -48 29
-20 52 27 22 100 25 100 4z"/>
<path d="M2014 2336 c0 -30 3 -32 34 -32 26 0 32 4 29 17 -2 9 -1 23 4 31 7
12 1 15 -29 15 -36 0 -38 -1 -38 -31z"/>
<path d="M2167 2214 c-14 -14 -7 -35 11 -32 9 2 17 10 17 17 0 16 -18 25 -28
15z"/>
<path d="M760 2196 c-18 -22 -5 -48 22 -44 17 2 23 10 23 28 0 29 -26 38 -45
16z"/>
<path d="M622 2023 c2 -10 10 -18 18 -18 8 0 16 8 18 18 2 12 -3 17 -18 17
-15 0 -20 -5 -18 -17z"/>
<path d="M855 1938 c-68 -70 -135 -160 -135 -182 0 -5 7 -1 15 9 8 11 37 50
64 86 28 37 72 88 98 113 26 25 44 46 38 46 -5 0 -41 -33 -80 -72z"/>
<path d="M2056 1978 c24 -29 34 -39 63 -63 l24 -20 -11 21 c-11 22 -77 84 -89
84 -3 0 2 -10 13 -22z"/>
<path d="M2306 1958 c-13 -19 -14 -25 -2 -43 7 -11 21 -21 30 -23 42 -9 64 58
27 78 -28 15 -38 13 -55 -12z m51 -14 c8 -21 -13 -42 -28 -27 -13 13 -5 43 11
43 6 0 13 -7 17 -16z"/>
<path d="M2159 1870 c-19 -10 -41 -26 -48 -34 -8 -9 -23 -16 -35 -16 -11 0
-30 -7 -41 -16 -20 -15 -20 -15 3 -57 12 -23 22 -53 22 -67 0 -14 6 -37 14
-52 8 -15 12 -36 9 -48 -8 -31 15 -51 56 -48 21 1 43 -2 50 -6 19 -12 107 -9
133 5 13 6 39 26 58 44 19 18 45 36 58 40 27 8 30 49 6 76 -12 13 -17 40 -18
96 l-1 78 -45 1 c-25 1 -58 6 -73 13 -42 16 -107 13 -148 -9z m189 -37 c56
-45 54 -75 -12 -146 l-53 -58 -79 30 c-43 17 -90 40 -104 51 l-25 19 25 48
c34 65 86 95 158 90 40 -3 61 -11 90 -34z m62 -10 c0 -14 -1 -24 -3 -22 -1 2
-11 14 -21 27 -19 22 -19 22 2 22 17 0 22 -6 22 -27z m-334 -39 c-3 -9 -6 -20
-6 -25 0 -15 -17 -10 -24 7 -8 20 1 34 21 34 10 0 13 -6 9 -16z m329 -131 c-6
-32 -8 -33 -50 -33 -25 0 -45 3 -45 6 0 3 21 30 48 58 45 50 47 52 50 28 2
-14 1 -40 -3 -59z m-200 -13 c22 -7 44 -16 48 -20 10 -9 -61 -60 -83 -60 -32
0 -90 81 -90 125 0 10 11 7 43 -10 23 -12 60 -28 82 -35z m153 -57 c-21 -26
-67 -43 -114 -43 l-47 0 43 38 c42 37 45 38 87 29 35 -9 41 -13 31 -24z"/>
<path d="M2205 1839 c-10 -16 3 -56 20 -63 36 -13 69 31 45 59 -14 17 -56 20
-65 4z m52 -33 c-4 -9 -11 -16 -17 -16 -17 0 -24 31 -9 41 18 11 34 -5 26 -25z"/>
<path d="M2126 1754 c-9 -22 17 -49 39 -40 10 3 15 15 13 28 -4 29 -42 37 -52
12z"/>
<path d="M2262 1741 c-8 -4 -12 -19 -10 -32 2 -18 9 -24 28 -24 19 0 26 6 28
24 3 20 -11 41 -28 41 -3 0 -11 -4 -18 -9z"/>
<path d="M621 1713 c-13 -3 -43 -24 -66 -48 -34 -34 -48 -42 -69 -38 -30 6
-56 -11 -56 -38 0 -10 18 -36 40 -56 22 -21 40 -44 40 -50 0 -22 70 -92 103
-102 34 -11 236 -9 255 3 18 11 14 41 -8 61 -17 16 -20 26 -14 62 9 62 -3 109
-39 150 -49 55 -103 72 -186 56z m138 -41 c33 -24 59 -61 67 -94 6 -26 4 -28
-22 -29 l-29 -1 28 -10 c31 -11 34 -23 11 -36 -12 -6 -13 -11 -5 -16 8 -5 5
-16 -10 -38 -19 -27 -25 -29 -58 -23 -20 4 -64 20 -97 36 -34 16 -67 29 -73
29 -6 0 -11 4 -11 9 0 5 19 8 43 6 24 -2 16 1 -20 7 -52 9 -63 14 -63 30 0 17
5 19 26 14 17 -5 23 -3 19 4 -3 5 -13 10 -21 10 -42 0 13 90 71 116 38 18 111
10 144 -14z m-250 -74 c-1 -7 -4 -24 -8 -38 l-7 -25 -18 27 c-10 15 -15 32
-11 38 9 14 45 13 44 -2z m200 -204 c2 -2 -14 -4 -37 -4 -30 0 -51 8 -83 33
-69 52 -56 58 33 15 46 -22 85 -42 87 -44z m136 26 c-3 -6 -18 -10 -32 -10
l-26 0 23 25 c20 22 25 23 33 10 4 -8 5 -20 2 -25z"/>
<path d="M605 1629 c-10 -30 18 -58 43 -43 9 6 17 22 17 35 0 34 -50 41 -60 8z
m48 -6 c9 -9 -13 -34 -24 -27 -14 8 -11 34 4 34 8 0 17 -3 20 -7z"/>
<path d="M714 1635 c-4 -9 -2 -21 4 -27 15 -15 44 -1 40 19 -4 23 -36 29 -44
8z"/>
<path d="M684 1545 c-4 -9 -2 -21 4 -27 15 -15 44 -1 40 19 -4 23 -36 29 -44
8z"/>
<path d="M2141 1497 c-18 -23 -2 -49 28 -45 20 2 26 8 26 28 0 29 -34 40 -54
17z"/>
<path d="M2344 1474 c3 -17 8 -64 12 -105 13 -143 -42 -386 -105 -461 -8 -10
-11 -18 -7 -18 4 0 -2 -15 -13 -34 -27 -43 -27 -56 0 -23 35 45 90 176 116
276 22 84 24 112 21 226 -3 80 -9 138 -17 150 -11 18 -12 17 -7 -11z"/>
<path d="M602 1275 c-1 -55 6 -110 22 -176 23 -90 77 -222 97 -235 14 -8 11 3
-11 46 -56 109 -89 230 -100 360 l-7 85 -1 -80z"/>
<path d="M428 1098 c-17 -17 -17 -19 1 -37 18 -18 19 -18 35 0 15 18 15 21 -1
38 -17 17 -19 17 -35 -1z"/>
<path d="M532 943 c2 -10 10 -18 18 -18 8 0 16 8 18 18 2 12 -3 17 -18 17 -15
0 -20 -5 -18 -17z"/>
<path d="M2384 879 c-3 -6 0 -17 7 -25 18 -17 44 -2 36 20 -7 18 -33 21 -43 5z"/>
<path d="M2670 586 c-32 -12 -27 -12 50 -8 47 2 89 8 95 13 14 14 -105 9 -145
-5z"/>
<path d="M2513 573 c20 -2 54 -2 75 0 20 2 3 4 -38 4 -41 0 -58 -2 -37 -4z"/>
<path d="M965 557 c382 -14 1226 -14 1315 1 52 8 33 9 -100 4 -220 -8 -531 -8
-1075 0 l-450 6 310 -11z"/>
</g>
</svg>
