<?xml version="1.0" standalone="no"?>
<!DOCTYPE svg PUBLIC "-//W3C//DTD SVG 20010904//EN"
 "http://www.w3.org/TR/2001/REC-SVG-20010904/DTD/svg10.dtd">
<svg version="1.0" xmlns="http://www.w3.org/2000/svg"
 width="300.000000pt" height="300.000000pt" viewBox="0 0 300.000000 300.000000"
 preserveAspectRatio="xMidYMid meet">
<metadata>
Created by potrace 1.10, written by Peter Selinger 2001-2011
</metadata>
<g transform="translate(0.000000,300.000000) scale(0.100000,-0.100000)"
fill="#000000" stroke="none">
<path d="M1465 2737 c-27 -8 -69 -23 -92 -35 -48 -25 -138 -111 -148 -142 -4
-14 -15 -20 -34 -20 -41 0 -70 -37 -81 -103 -11 -73 1 -110 46 -136 19 -11 34
-28 34 -38 0 -10 13 -42 29 -70 16 -29 26 -53 22 -53 -7 0 -85 50 -112 72 -9
7 -18 30 -22 52 -12 75 -50 105 -88 70 -16 -15 -20 -15 -41 0 -34 24 -65 20
-85 -11 -10 -16 -30 -40 -44 -55 -30 -31 -42 -68 -31 -96 12 -32 200 -199 255
-227 29 -14 69 -28 90 -32 l37 -6 0 -129 0 -129 -36 -31 c-45 -40 -64 -77 -64
-128 0 -37 -7 -50 -56 -103 -105 -117 -168 -291 -163 -449 l3 -77 -49 -33
c-72 -48 -183 -156 -206 -200 -41 -80 -13 -140 80 -173 51 -18 241 -21 339 -5
60 10 64 10 105 -18 125 -86 224 -116 377 -116 99 0 126 4 195 28 135 46 237
119 313 220 54 73 97 162 113 230 11 49 14 53 92 101 107 67 229 186 251 246
16 42 16 49 2 83 -12 28 -27 42 -63 59 -43 20 -64 22 -203 22 -143 0 -156 1
-170 20 -8 11 -32 39 -53 63 -35 37 -39 46 -34 80 4 26 0 50 -13 81 -13 28
-20 65 -20 105 0 75 -29 195 -64 265 -14 28 -26 63 -26 78 -1 15 -7 46 -15 67
-13 39 -13 41 16 73 16 19 29 38 29 43 0 6 12 10 26 10 44 0 81 48 89 115 10
74 -1 106 -42 125 -18 8 -33 22 -33 31 0 37 -64 140 -116 188 -89 82 -225 117
-339 88z m239 -51 c53 -26 156 -117 156 -138 0 -6 -17 5 -37 22 -60 53 -155
88 -284 106 -40 5 -104 -3 -179 -22 l-25 -6 24 17 c81 60 245 70 345 21z m-69
-51 c125 -32 229 -105 261 -182 21 -49 10 -53 -15 -5 -53 103 -215 175 -396
175 -108 0 -163 -18 -219 -71 l-39 -37 19 33 c22 38 66 68 127 88 58 18 191
17 262 -1z m47 -79 c63 -19 132 -65 172 -116 20 -25 36 -48 36 -52 0 -15 -29
-8 -42 10 -43 57 -137 -18 -125 -99 3 -18 -3 -28 -24 -41 -49 -30 -32 -94 23
-86 15 2 28 15 37 36 9 20 22 32 34 32 26 0 85 63 90 98 2 15 2 -1 0 -36 -5
-78 -8 -86 -55 -146 -58 -75 -64 -77 -185 -78 -134 -1 -208 14 -296 59 -37 20
-70 33 -73 31 -8 -8 63 -58 120 -84 101 -46 214 -52 332 -19 11 3 -6 -7 -36
-22 -45 -22 -69 -27 -135 -27 -69 -1 -89 3 -145 30 -92 44 -141 94 -179 183
-25 56 -30 81 -25 105 l7 31 9 -33 c13 -47 24 -32 30 41 13 156 93 212 290
202 54 -3 117 -12 140 -19z m-488 -72 c-9 -20 -16 -65 -17 -100 -1 -35 -5 -64
-9 -64 -4 0 -15 11 -24 25 -32 48 6 175 52 175 10 0 10 -8 -2 -36z m778 -146
c-3 -63 -19 -104 -47 -116 -14 -7 -25 -11 -25 -9 0 1 7 24 15 51 8 27 15 74
15 105 l0 55 22 -21 c16 -16 21 -33 20 -65z m-132 32 c24 -44 -31 -121 -71
-99 -24 13 -26 75 -2 101 21 24 60 23 73 -2z m-868 -61 c27 -20 29 -25 22 -63
-9 -57 -31 -96 -53 -96 -11 0 -34 12 -53 26 l-33 26 34 -32 c27 -25 40 -31 66
-28 31 3 34 1 44 -33 13 -43 44 -85 74 -100 20 -11 20 -9 -4 17 -14 16 -31 37
-38 46 -16 22 -25 164 -11 173 5 3 10 21 10 40 0 71 41 53 50 -22 4 -42 10
-51 48 -78 41 -29 42 -31 38 -77 -6 -55 -43 -148 -60 -148 -44 0 -266 197
-266 236 0 26 36 74 56 74 8 0 14 10 14 23 0 43 18 47 62 16z m766 -83 c5 -22
-16 -46 -34 -39 -17 6 -18 35 -2 51 16 16 32 10 36 -12z m-428 -149 c89 -77
229 -106 346 -72 32 9 70 24 83 32 23 14 25 14 43 -8 30 -39 75 -120 97 -175
l20 -52 -47 3 c-53 4 -55 7 -71 89 -15 81 -36 101 -27 26 4 -30 10 -65 13 -77
5 -21 2 -23 -41 -23 -39 0 -46 3 -46 19 0 45 -23 52 -168 49 l-137 -3 -15 -32
c-13 -28 -20 -33 -54 -33 -38 0 -38 0 -32 33 11 52 19 157 13 157 -4 0 -11
-19 -17 -41 l-11 -42 -61 6 c-33 3 -61 7 -64 9 -2 3 5 22 16 43 11 22 25 65
32 96 l11 56 41 -15 c23 -9 57 -29 76 -45z m504 -13 c3 -9 6 -23 6 -32 0 -13
-5 -11 -19 8 -19 23 -19 40 -1 40 4 0 11 -7 14 -16z m-562 -201 c-2 -27 -9
-56 -13 -65 -5 -9 -6 -44 -3 -77 5 -43 3 -61 -5 -61 -8 0 -11 38 -11 125 0
116 1 125 19 125 16 0 18 -6 13 -47z m188 -27 c0 -22 9 -45 25 -64 14 -17 25
-42 25 -56 0 -26 -2 -27 -52 -24 l-53 3 -3 79 c-3 82 3 96 41 96 13 0 17 -8
17 -34z m204 21 c14 -10 16 -25 14 -87 l-3 -75 -72 -3 -73 -3 0 30 c0 17 -11
42 -25 59 -15 18 -25 42 -25 61 l0 31 83 0 c52 0 90 -5 101 -13z m-294 -90 c0
-27 -1 -28 -47 -25 -37 2 -49 7 -51 22 -5 24 7 31 57 31 38 0 41 -2 41 -28z
m443 23 c5 0 7 -10 5 -22 -3 -20 -10 -23 -60 -26 -58 -3 -58 -3 -58 25 0 30 0
30 113 23z m96 -9 c14 -9 29 -79 30 -138 l1 -32 -36 24 c-19 13 -44 27 -54 30
-26 8 -34 50 -14 80 8 13 13 29 9 35 -8 12 44 13 64 1z m-556 -71 c17 0 27 -5
27 -15 0 -26 45 -35 167 -35 94 0 120 3 135 17 10 9 18 21 18 27 0 7 20 11 50
11 44 0 50 -2 50 -21 0 -18 -7 -22 -47 -26 -53 -6 -109 -25 -100 -34 3 -4 20
-1 38 5 59 21 129 14 185 -19 61 -35 131 -130 72 -99 -26 14 -115 6 -178 -16
-43 -15 -44 -15 -64 10 -61 73 -241 74 -301 0 -20 -24 -21 -24 -63 -9 -63 21
-154 29 -180 15 -30 -16 -28 -2 7 46 52 72 161 103 250 72 18 -6 35 -9 38 -5
11 10 -51 29 -114 34 -59 4 -63 6 -63 29 0 21 4 24 23 19 12 -3 34 -6 50 -6z
m307 -185 c34 -18 35 -25 18 -123 -20 -120 23 -208 113 -232 88 -24 142 23
145 126 1 39 7 70 17 85 l17 23 33 -32 c41 -40 90 -120 121 -199 l24 -62 -36
-22 c-21 -12 -42 -22 -49 -22 -7 0 -9 -5 -6 -10 4 -6 -1 -8 -11 -4 -11 5 -15
3 -10 -5 5 -7 2 -9 -9 -5 -9 3 -55 -10 -104 -30 -137 -55 -268 -99 -393 -132
-109 -28 -228 -70 -204 -71 6 0 30 7 53 14 22 8 71 22 108 31 125 31 263 76
386 126 160 66 154 64 142 51 -28 -29 -414 -186 -620 -252 -92 -29 -296 -81
-372 -94 -31 -5 -32 -4 -52 49 -82 220 -34 469 125 645 l37 41 20 -33 c26 -41
34 -167 11 -169 -28 -3 -32 -4 -40 -11 -10 -11 10 -10 40 2 21 8 27 6 36 -10
5 -10 25 -23 44 -30 99 -32 211 71 195 180 -3 25 -10 71 -14 102 l-8 58 34 15
c46 19 171 20 209 0z m-340 -34 c59 -15 66 -20 77 -51 17 -49 16 -145 -2 -180
-36 -71 -122 -94 -170 -45 -20 19 -25 34 -25 75 0 50 0 50 33 50 17 1 46 7 62
15 l30 14 -42 -6 c-65 -8 -89 2 -118 50 -14 24 -25 51 -25 60 0 39 73 47 180
18z m631 9 c25 -14 24 -35 -6 -87 -29 -48 -53 -58 -118 -50 l-42 6 30 -14 c17
-8 45 -14 63 -15 32 0 32 -1 32 -49 0 -64 -28 -101 -76 -101 -107 0 -158 97
-123 236 11 42 14 45 63 58 100 28 146 32 177 16z m492 -244 c80 -39 72 -100
-26 -200 -218 -222 -819 -485 -1290 -566 -131 -22 -318 -27 -382 -9 -106 29
-113 99 -19 199 43 46 173 150 188 150 3 0 6 -11 6 -24 0 -14 -14 -38 -35 -59
-41 -41 -44 -60 -13 -81 136 -96 1301 326 1380 500 16 34 -6 55 -68 62 -54 6
-85 31 -56 44 9 4 76 6 147 5 101 -2 138 -7 168 -21z m-225 -65 c11 -6 8 -14
-12 -37 -27 -32 -39 -27 -50 19 -6 24 -4 27 21 27 16 0 34 -4 41 -9z m-68
-376 c0 -12 -45 -123 -63 -154 -127 -224 -375 -348 -621 -313 -91 13 -197 52
-259 94 l-38 25 63 13 c212 41 569 168 788 279 115 58 130 65 130 56z m-1207
-82 c2 -10 8 -26 12 -35 6 -15 2 -18 -28 -18 -46 0 -55 15 -26 46 27 29 35 30
42 7z"/>
<path d="M1515 2545 c-27 -8 -53 -14 -56 -15 -3 0 -26 -13 -51 -30 -43 -29
-106 -108 -142 -178 -25 -49 3 -31 51 34 71 94 92 115 152 144 33 17 66 30 73
30 7 1 24 7 38 15 22 13 23 14 5 14 -11 0 -42 -7 -70 -14z"/>
<path d="M1295 2051 c46 -50 142 -93 223 -99 73 -5 160 14 197 43 11 8 -2 5
-30 -8 -40 -18 -68 -22 -140 -22 -102 0 -168 24 -240 86 l-40 33 30 -33z"/>
<path d="M1566 1804 c-9 -8 -16 -22 -16 -29 0 -7 7 -21 16 -29 8 -9 22 -16 29
-16 19 0 45 28 45 49 0 38 -45 54 -74 25z m51 -20 c3 -8 1 -20 -5 -26 -15 -15
-43 8 -35 28 7 19 32 18 40 -2z"/>
<path d="M1612 1602 c26 -9 59 -28 73 -42 25 -23 27 -23 24 -5 -4 22 -56 50
-109 59 -30 5 -29 4 12 -12z"/>
<path d="M1400 1592 c-23 -11 -36 -25 -38 -42 l-4 -25 21 26 c11 14 35 33 53
42 18 9 26 17 18 17 -8 0 -31 -8 -50 -18z"/>
<path d="M1535 1385 c-91 -40 -118 -60 -48 -35 29 11 26 6 -24 -28 -16 -11
-16 -12 7 -6 37 10 169 75 142 70 -19 -4 -21 -2 -11 10 6 8 17 14 25 14 7 0
16 5 19 10 10 16 -3 12 -110 -35z"/>
<path d="M1970 1244 c-19 -13 -35 -32 -35 -42 0 -11 -25 -29 -75 -54 -80 -39
-107 -47 -75 -21 20 15 20 15 0 10 -11 -3 -86 -33 -167 -66 -82 -33 -208 -79
-280 -102 -143 -45 -145 -46 -135 -55 4 -4 13 -1 21 5 8 7 20 9 27 6 7 -5 -4
-13 -27 -21 -39 -13 -66 -9 -43 8 10 7 9 8 -6 4 -11 -2 -39 -8 -62 -11 -24 -4
-43 -11 -43 -17 0 -6 8 -7 18 -3 35 15 52 17 52 7 0 -6 -14 -13 -31 -17 -17
-4 -28 -9 -26 -12 8 -7 166 34 301 79 225 75 426 161 568 244 69 40 77 48 68
65 -6 10 -12 19 -13 19 -1 -1 -18 -12 -37 -26z"/>
<path d="M1064 1215 c5 -15 -9 -21 -61 -28 -12 -2 -26 -7 -30 -11 -5 -5 3 -6
17 -3 14 3 42 9 63 12 27 5 37 12 37 26 0 11 -7 19 -16 19 -10 0 -14 -6 -10
-15z"/>
<path d="M1642 1203 c-10 -4 -10 -8 0 -21 12 -15 11 -16 -4 -3 -15 11 -27 9
-85 -14 -103 -42 -311 -111 -376 -125 -57 -13 -96 -38 -43 -28 32 6 34 1 4
-12 -58 -23 23 -8 135 26 122 36 427 151 427 161 0 3 -9 3 -21 0 -15 -4 -19
-2 -15 9 6 14 0 16 -22 7z"/>
<path d="M1073 1115 c0 -33 2 -45 4 -27 2 18 2 45 0 60 -2 15 -4 0 -4 -33z"/>
<path d="M2025 1120 c-22 -16 -79 -48 -127 -71 -48 -24 -86 -44 -84 -46 3 -4
128 56 210 100 16 8 35 13 42 10 9 -3 14 2 14 16 0 27 -6 26 -55 -9z"/>
<path d="M1060 1009 l-25 -7 25 -1 c27 -1 18 -16 -15 -24 -16 -4 -15 -5 5 -5
42 -1 60 10 47 29 -8 10 -20 13 -37 8z"/>
<path d="M985 880 l-30 -8 30 0 c17 0 41 4 55 8 l25 8 -25 0 c-14 0 -38 -4
-55 -8z"/>
<path d="M2289 1231 c12 -12 21 -29 21 -39 0 -44 -78 -120 -193 -186 -26 -16
-44 -33 -40 -38 3 -7 1 -8 -5 -4 -6 4 -55 -16 -110 -43 -157 -79 -414 -182
-537 -217 -61 -16 -93 -33 -59 -31 11 1 18 -4 17 -10 -4 -17 -8 -18 120 23
215 69 564 225 551 245 -4 8 -3 9 5 5 24 -15 245 139 290 203 12 16 21 41 21
55 0 27 -16 40 -69 51 l-33 7 21 -21z m61 -43 c0 -11 -14 -37 -32 -56 -17 -20
-29 -32 -27 -27 3 6 10 21 16 35 6 14 14 38 18 53 6 31 25 27 25 -5z"/>
<path d="M746 671 c-14 -22 -26 -49 -26 -59 0 -16 10 -24 65 -51 6 -3 4 3 -4
12 -7 9 -19 17 -27 17 -25 0 -25 20 2 65 33 58 25 71 -10 16z"/>
<path d="M1255 653 c-34 -13 -49 -22 -35 -21 14 0 33 -3 43 -7 10 -4 21 -5 24
-1 4 3 -1 6 -10 6 -9 0 -17 5 -17 10 0 6 9 10 20 10 11 0 20 -4 20 -10 0 -5 9
-10 19 -10 14 0 18 5 14 20 -8 29 -11 29 -78 3z"/>
<path d="M1168 633 c-10 -2 -18 -9 -18 -14 0 -6 4 -8 9 -4 5 3 12 1 16 -5 4
-6 -6 -10 -22 -11 -15 -1 -21 -3 -11 -6 9 -2 31 0 50 6 26 7 28 9 9 10 -16 1
-21 5 -17 16 3 8 4 14 3 14 -1 -1 -10 -3 -19 -6z"/>
<path d="M1110 620 c-14 -4 -39 -8 -56 -9 -18 -1 -34 -7 -38 -16 -3 -9 -18
-15 -38 -15 -18 0 -40 -5 -48 -10 -10 -7 2 -8 40 -5 30 3 63 6 74 6 18 0 18 0
0 14 -17 13 -15 13 16 5 44 -13 60 -13 60 0 0 5 -7 6 -17 3 -11 -4 -14 -3 -9
5 4 7 13 12 21 12 8 0 17 5 20 10 3 6 5 10 3 9 -2 -1 -14 -5 -28 -9z"/>
<path d="M1360 599 c-11 -7 3 -8 45 -3 33 3 62 8 64 10 10 9 -96 3 -109 -7z"/>
<path d="M1910 583 c-129 -65 -372 -151 -495 -176 -52 -10 -64 -16 -49 -21 23
-7 156 25 279 67 194 67 420 176 394 190 -2 1 -60 -26 -129 -60z"/>
</g>
</svg>
