<?xml version="1.0" standalone="no"?>
<!DOCTYPE svg PUBLIC "-//W3C//DTD SVG 20010904//EN"
 "http://www.w3.org/TR/2001/REC-SVG-20010904/DTD/svg10.dtd">
<svg version="1.0" xmlns="http://www.w3.org/2000/svg"
 width="300.000000pt" height="200.000000pt" viewBox="0 0 300.000000 200.000000"
 preserveAspectRatio="xMidYMid meet">
<metadata>
Created by potrace 1.10, written by Peter Selinger 2001-2011
</metadata>
<g transform="translate(0.000000,200.000000) scale(0.100000,-0.100000)"
fill="#000000" stroke="none">
<path d="M0 1000 l0 -1000 1500 0 1500 0 0 1000 0 1000 -1500 0 -1500 0 0
-1000z m1910 -6 c0 -730 -2 -825 -15 -814 -12 10 -15 58 -17 286 l-3 273 -42
-19 c-32 -14 -41 -15 -36 -5 3 8 20 17 39 21 47 9 67 56 60 138 -6 67 -12 79
-25 45 -5 -14 -5 -25 0 -27 5 -2 9 -28 9 -58 0 -47 -3 -54 -20 -54 -10 0 -24
9 -30 21 -13 23 -6 69 10 69 5 0 7 13 4 29 -5 23 -2 32 15 43 17 10 21 23 21
60 0 32 -4 48 -12 47 -23 -1 -173 -37 -163 -39 6 -1 13 -2 17 -1 4 0 12 -24
19 -53 8 -39 16 -53 25 -49 19 7 18 -7 -6 -67 -11 -28 -20 -53 -20 -55 0 -3 9
-5 20 -5 11 0 20 -6 20 -14 0 -8 3 -21 6 -30 3 -9 1 -16 -5 -16 -6 0 -11 8
-12 18 0 14 -2 13 -11 -4 -11 -24 -54 -39 -163 -58 -69 -12 -74 -12 -78 6 -3
10 -11 18 -19 18 -11 0 -10 -2 1 -9 11 -7 6 -15 -20 -40 -19 -17 -28 -31 -21
-32 58 -7 144 -50 130 -65 -7 -6 -81 21 -111 40 -29 20 -37 13 -37 -35 0 -43
10 -49 81 -49 37 0 49 4 49 15 0 8 4 15 9 15 11 0 21 -25 21 -53 0 -20 6 -22
68 -25 92 -3 98 -6 98 -45 -1 -30 2 -32 39 -38 36 -6 37 -6 10 -9 -16 -1 -33
-2 -36 -2 -4 1 -4 -19 -1 -43 4 -41 1 -48 -31 -80 -29 -29 -42 -35 -76 -35
-54 0 -85 29 -76 70 4 18 0 40 -9 59 -9 16 -16 44 -16 61 0 27 -3 30 -30 30
-29 0 -30 -1 -30 -50 0 -55 -12 -68 -70 -72 -40 -4 -52 19 -16 28 27 7 31 19
20 73 -5 22 -11 30 -21 27 -8 -3 -11 -1 -8 4 3 6 2 10 -3 10 -6 0 -6 16 0 43
5 23 7 57 4 75 -2 17 -1 32 3 32 3 0 7 9 8 19 1 15 -3 18 -15 14 -9 -3 -14 -2
-9 2 4 5 17 9 29 10 33 2 44 27 29 63 -7 17 -16 31 -20 30 -3 0 -8 1 -11 2
-15 6 -50 6 -50 0 0 -4 -22 -7 -49 -7 -37 0 -48 4 -44 14 3 9 24 13 64 13 60
0 71 8 44 30 -7 6 -17 32 -21 56 -6 42 -8 44 -23 29 -20 -17 -47 -20 -55 -6
-4 5 7 12 24 16 16 4 30 11 30 16 0 5 3 8 8 6 4 -1 9 3 11 8 3 6 13 19 23 30
10 11 21 30 24 42 7 27 19 29 33 6 9 -16 13 -16 83 1 117 29 130 36 133 75 3
30 17 50 36 51 4 0 10 -19 13 -43 l7 -43 76 16 c59 12 78 21 84 37 7 19 6 20
-29 8 -68 -23 -122 -29 -122 -12 0 10 22 18 74 27 l75 13 1 280 c0 154 3 283
6 288 7 12 -21 11 -44 0 -41 -21 -322 -141 -332 -141 -6 0 -10 -43 -10 -115 0
-114 0 -115 -23 -115 -23 0 -98 -47 -112 -70 -3 -5 -11 -8 -16 -5 -5 4 -3 15
6 28 19 28 19 48 0 23 -8 -11 -15 -15 -15 -10 0 20 23 33 40 24 13 -7 22 -4
35 10 10 11 21 18 24 15 4 -2 12 -1 18 3 13 8 24 170 13 177 -4 3 -93 7 -197
10 -151 5 -192 4 -201 -7 -7 -9 -10 -95 -8 -273 2 -263 0 -295 -15 -295 -4 0
-8 134 -9 298 l-1 297 220 -3 219 -3 -5 40 c-4 31 -2 41 8 42 8 0 104 45 214
99 110 54 203 99 208 99 4 1 7 -371 7 -825z m80 806 c0 -5 -2 -10 -4 -10 -3 0
-8 5 -11 10 -3 6 -1 10 4 10 6 0 11 -4 11 -10z m-3 -115 c0 -8 -4 -12 -9 -9
-5 3 -6 10 -3 15 9 13 12 11 12 -6z m70 -217 c-2 -13 -4 -5 -4 17 -1 22 1 32
4 23 2 -10 2 -28 0 -40z m-627 35 c0 -5 -26 -7 -57 -5 -101 5 -111 9 -25 11
45 0 82 -2 82 -6z m147 -173 c26 0 100 -85 107 -123 4 -20 11 -39 16 -42 5 -3
36 1 69 10 66 17 100 20 86 7 -9 -8 -152 -42 -175 -42 -6 0 -10 16 -10 36 0
59 -58 127 -117 139 -18 3 -33 11 -33 17 0 6 9 8 23 4 12 -3 28 -6 34 -6z
m-881 -35 c32 -13 47 -35 24 -35 -5 0 -10 4 -10 8 0 12 -70 32 -109 32 -51 0
-94 -24 -126 -70 -25 -36 -30 -52 -28 -94 l2 -51 -122 0 -122 0 -3 -52 -3 -53
116 0 117 0 -5 40 c-4 37 -2 40 19 40 18 0 24 -7 29 -34 8 -42 20 -46 142 -46
l91 0 14 -30 c7 -16 16 -30 19 -30 4 0 9 -16 11 -35 2 -19 0 -35 -4 -35 -4 0
-9 -28 -10 -62 -1 -40 -3 -50 -5 -28 -3 19 -9 40 -15 47 -5 7 -13 43 -16 80
l-7 68 -55 3 -55 2 26 -23 c32 -29 45 -69 41 -124 -2 -34 -7 -43 -21 -43 -15
0 -19 10 -23 53 -6 67 -26 108 -61 125 -34 16 -86 7 -93 -16 -3 -10 -9 -24
-14 -33 -6 -12 4 -22 42 -43 32 -18 53 -25 61 -18 7 5 21 12 32 15 20 7 20 7
1 -8 -11 -8 -23 -15 -28 -15 -4 0 -8 -7 -8 -15 0 -8 -7 -15 -15 -15 -15 0 -21
-25 -7 -33 4 -2 1 -2 -5 -1 -7 2 -13 -1 -13 -6 0 -6 12 -10 26 -10 14 0 23 4
19 10 -4 6 7 9 27 9 28 -2 29 -2 8 -7 -24 -4 -24 -5 -5 -13 13 -6 -4 -7 -45
-4 -36 3 -81 6 -100 6 -29 -1 -32 1 -17 10 9 6 30 9 45 7 15 -2 27 0 27 3 0 3
6 13 13 21 15 18 4 30 -50 53 l-36 14 11 43 c5 24 15 46 21 50 13 9 15 9 -131
9 l-108 1 -3 -141 -3 -141 39 0 c22 0 54 -3 73 -7 48 -9 13 -19 -55 -15 -45 3
-56 8 -62 24 -10 31 -6 400 5 411 5 5 59 8 120 8 l111 -1 0 40 c0 42 27 107
54 129 9 7 13 18 9 24 -3 5 -1 7 4 4 6 -4 28 0 49 8 43 16 97 12 150 -10z
m827 -2 c-7 -2 -19 -2 -25 0 -7 3 -2 5 12 5 14 0 19 -2 13 -5z m57 -13 c-8 -5
-22 -10 -30 -10 -13 0 -13 1 0 10 8 5 22 10 30 10 13 0 13 -1 0 -10z m-942 -7
c-10 -2 -26 -2 -35 0 -10 3 -2 5 17 5 19 0 27 -2 18 -5z m449 -155 c-2 -29 -3
-8 -3 47 0 55 1 79 3 53 2 -26 2 -71 0 -100z m-509 125 c-16 -2 -40 -2 -55 0
-16 2 -3 4 27 4 30 0 43 -2 28 -4z m162 -25 c28 -46 26 -115 -3 -159 -61 -91
-167 -41 -167 79 0 67 44 102 138 111 7 0 21 -14 32 -31z m760 17 c53 -27 67
-133 24 -184 -47 -57 -121 -36 -163 46 -22 43 -9 124 23 145 19 13 86 9 116
-7z m130 -25 c-20 -13 -33 -13 -25 0 3 6 14 10 23 10 15 0 15 -2 2 -10z m-42
-53 c2 -28 -1 -47 -7 -47 -6 0 -11 12 -11 28 0 15 -3 38 -7 51 -4 18 -2 23 8
19 9 -3 15 -22 17 -51z m-1088 13 c12 -8 9 -10 -13 -10 -16 0 -26 4 -22 10 8
12 16 12 35 0z m50 -52 c0 -60 -15 -54 -23 10 -4 32 -2 42 9 42 10 0 14 -14
14 -52z m1090 -2 c0 -2 -7 -7 -16 -10 -8 -3 -12 -2 -9 4 6 10 25 14 25 6z
m347 -48 c-3 -7 -5 -2 -5 12 0 14 2 19 5 13 2 -7 2 -19 0 -25z m-337 -3 c0 -2
-10 -9 -22 -15 -22 -11 -22 -10 -4 4 21 17 26 19 26 11z m-1240 -46 c0 -5 -42
-9 -95 -9 -120 0 -126 18 -7 22 93 3 102 2 102 -13z m536 -15 c-7 -27 1 -31
18 -8 9 11 19 13 41 8 l30 -8 -30 -6 c-21 -4 -30 -11 -30 -25 0 -13 -7 -20
-22 -21 -14 -1 -20 3 -16 12 6 18 -5 18 -20 1 -19 -20 -17 -32 4 -45 16 -10
21 -10 26 4 5 13 7 13 14 2 7 -10 9 -9 9 3 0 20 21 30 49 22 34 -9 24 -25 -11
-19 -30 5 -31 5 -10 -6 30 -15 28 -25 -5 -26 -16 0 -40 -3 -56 -7 -17 -5 -33
-3 -42 5 -21 18 -19 64 5 85 11 10 20 26 20 35 0 21 10 31 22 24 5 -4 7 -17 4
-30z m-411 6 c13 -6 15 -9 5 -9 -8 0 -22 4 -30 9 -18 12 -2 12 25 0z m647 -62
c-6 -95 -12 -100 -12 -10 l0 72 -30 0 c-34 0 -34 0 -31 -102 1 -38 -2 -68 -7
-68 -6 0 -10 40 -9 90 l0 90 47 0 47 0 -5 -72z m-157 22 c4 -6 -5 -10 -20 -10
-15 0 -24 4 -20 10 3 6 12 10 20 10 8 0 17 -4 20 -10z m128 3 c2 -5 -2 -21 -9
-38 -7 -16 -13 -23 -14 -15 0 8 -3 25 -6 38 -5 16 -2 22 9 22 9 0 18 -3 20 -7z
m-369 -17 c22 -9 38 -11 50 -4 10 5 20 7 24 4 3 -4 -4 -10 -17 -13 -22 -6 -23
-9 -16 -69 9 -87 -10 -83 -26 5 -7 44 -16 68 -23 65 -6 -2 -20 2 -31 10 -25
19 -5 20 39 2z m1050 -12 c-17 -16 -24 -32 -21 -45 3 -10 1 -22 -4 -25 -5 -3
-9 8 -9 23 0 33 25 73 45 73 9 0 5 -9 -11 -26z m-771 -287 c2 -153 7 -280 10
-283 3 -3 83 -1 178 5 100 6 177 7 182 2 9 -9 -58 -15 -275 -26 l-118 -6 0
273 c0 237 5 327 15 316 2 -2 5 -128 8 -281z m199 213 c44 0 67 -79 29 -100
-11 -5 -30 -10 -42 -10 -12 0 -28 -8 -36 -17 -13 -16 -14 -15 -8 12 6 29 6 29
-14 11 -26 -23 -42 -12 -18 12 13 12 22 14 35 7 20 -12 62 -8 62 6 0 6 4 8 8
5 4 -2 9 4 9 15 1 10 -3 19 -8 19 -6 0 -7 5 -3 12 5 8 2 9 -10 5 -10 -4 -15
-3 -11 3 6 10 -7 14 -32 11 -14 -2 -35 33 -26 43 4 3 16 -3 28 -14 12 -11 29
-20 37 -20z m-913 10 c10 -5 24 -22 30 -39 23 -53 -30 -114 -89 -102 -23 4
-60 42 -59 60 0 11 4 9 11 -6 24 -49 92 -51 118 -3 22 41 2 77 -50 90 -33 7
-33 8 -7 9 16 1 36 -3 46 -9z m-27 -27 c21 -19 23 -44 6 -61 -16 -16 -53 -15
-65 1 -12 14 -23 68 -14 62 4 -2 13 0 21 6 21 13 31 11 52 -8z m589 -7 c-11
-13 -71 -40 -71 -31 0 5 64 45 74 45 5 0 3 -6 -3 -14z m229 4 c0 -5 -4 -10
-10 -10 -5 0 -10 5 -10 10 0 6 5 10 10 10 6 0 10 -4 10 -10z m95 -17 c3 -9 3
-18 0 -21 -3 -3 -5 0 -5 6 0 7 -14 4 -35 -8 -43 -24 -52 -25 -35 -5 7 8 21 15
31 15 10 0 21 5 24 10 3 6 -5 10 -19 10 -14 0 -28 -4 -31 -10 -3 -5 -12 -10
-18 -10 -7 1 -2 9 10 19 25 21 68 17 78 -6z m-441 -24 c3 -3 -4 -5 -14 -6 -11
-1 -22 2 -25 8 -6 9 30 7 39 -2z m-94 -29 c0 -11 -7 -20 -15 -20 -15 0 -21 21
-8 33 12 13 23 7 23 -13z m1287 -12 c-3 -7 -5 -2 -5 12 0 14 2 19 5 13 2 -7 2
-19 0 -25z m-1342 -48 c-4 -13 -12 -28 -18 -32 -9 -6 -9 -8 0 -8 6 0 15 5 18
10 3 6 13 10 22 10 9 0 25 7 35 17 13 11 18 12 18 3 0 -7 -8 -19 -17 -26 -17
-13 -17 -15 6 -34 17 -15 19 -20 8 -20 -9 0 -19 5 -22 10 -9 14 -165 13 -165
-1 0 -6 -7 -8 -15 -5 -8 3 -22 9 -32 13 -11 4 -14 3 -9 -6 8 -13 -20 -51 -37
-51 -6 0 -2 9 8 20 10 11 15 23 12 26 -4 4 -15 -4 -26 -17 -11 -13 -20 -19
-21 -12 0 6 5 15 10 18 6 3 10 11 10 16 0 5 -11 2 -25 -7 -31 -20 -46 -10 -19
12 18 15 18 15 -4 11 -15 -4 -22 -1 -19 6 4 12 12 12 79 1 28 -5 39 -2 43 8 4
11 20 13 65 10 l60 -4 0 29 c0 22 5 29 21 29 17 0 19 -5 14 -26z m45 16 c-7
-7 -13 -7 -20 0 -6 6 -3 10 10 10 13 0 16 -4 10 -10z m1075 -163 l-6 -33 -79
0 c-52 0 -80 4 -80 11 0 8 19 9 61 5 41 -5 59 -3 54 4 -4 6 3 9 16 7 21 -2 22
1 20 60 -3 79 13 109 17 33 2 -30 1 -70 -3 -87z m-1045 107 c0 -5 -4 -10 -10
-10 -5 0 -10 5 -10 10 0 6 5 10 10 10 6 0 10 -4 10 -10z m60 -26 c0 -2 -7 -4
-15 -4 -8 0 -15 4 -15 10 0 5 7 7 15 4 8 -4 15 -8 15 -10z m307 -136 c-2 -29
-3 -8 -3 47 0 55 1 79 3 53 2 -26 2 -71 0 -100z m-389 47 l-57 -53 12 -49 c12
-45 14 -48 41 -45 16 2 48 10 70 17 46 16 51 13 60 -46 5 -33 10 -39 31 -39
13 0 27 -5 31 -11 11 -18 -17 -29 -65 -27 -43 3 -45 4 -59 48 -18 56 -15 53
-51 45 -28 -6 -30 -9 -19 -28 6 -12 10 -38 10 -59 -2 -33 2 -39 24 -44 49 -13
133 3 170 31 l36 27 -4 -27 c-5 -41 -56 -65 -139 -65 -60 0 -68 3 -83 25 -9
13 -16 38 -16 54 0 37 -10 62 -21 55 -5 -3 -6 2 -3 10 3 9 1 16 -4 16 -6 0
-14 17 -17 38 -4 20 -11 48 -16 61 -7 18 -7 26 3 32 7 5 9 9 5 9 -12 0 11 21
62 58 65 47 64 28 -1 -33z m-210 21 c-1 -14 -6 -22 -12 -19 -5 3 -6 1 -2 -6 4
-6 11 -9 16 -6 5 3 27 -6 49 -20 50 -31 61 -31 61 -1 0 15 -7 26 -20 29 -11 3
-20 10 -20 17 0 6 13 2 30 -10 17 -12 30 -23 30 -25 0 -4 -22 -57 -27 -64 -1
-2 -31 13 -66 32 -48 26 -68 32 -76 24 -17 -17 -14 -24 30 -72 l41 -44 34 26
c19 14 32 19 29 11 -3 -8 -20 -22 -37 -33 l-31 -18 -42 44 c-23 25 -44 51 -47
59 -5 12 -9 12 -26 -5 l-21 -20 41 -54 c45 -59 46 -53 -17 -95 -18 -12 -19
-16 -7 -50 11 -29 11 -40 2 -51 -39 -47 -116 26 -135 127 -11 59 11 52 34 -10
20 -57 49 -93 84 -105 11 -4 17 -1 17 8 0 8 -7 15 -15 15 -16 0 -45 49 -45 76
0 9 16 31 35 48 35 30 35 32 19 54 -16 23 -16 23 -38 4 -23 -22 -82 -40 -71
-22 3 6 22 17 41 25 23 9 33 19 28 26 -4 7 -3 9 3 6 11 -7 53 36 53 56 0 9 2
9 8 -1 6 -9 13 -7 29 10 11 13 23 31 26 41 9 25 17 21 15 -7z m300 -13 c1 -14
11 -40 22 -58 21 -33 27 -71 11 -60 -5 3 -12 19 -16 35 l-7 30 -26 -19 c-15
-10 -37 -21 -49 -25 -13 -3 -32 -9 -43 -12 -11 -3 -20 -1 -20 5 0 6 7 11 16
11 8 0 37 9 64 21 l48 21 -14 40 c-17 49 -17 49 -1 42 7 -2 14 -16 15 -31z
m818 0 c-11 -11 -19 6 -11 24 8 17 8 17 12 0 3 -10 2 -21 -1 -24z m149 -58 c6
-2 -25 -4 -67 -4 -43 -1 -78 3 -78 8 0 8 120 5 145 -4z m18 -46 c-6 -6 -9 -1
-7 13 3 33 6 36 11 14 3 -10 1 -22 -4 -27z m-406 -65 c-3 -3 -12 -4 -19 -1 -8
3 -5 6 6 6 11 1 17 -2 13 -5z m-862 -24 c-10 -11 -20 -18 -23 -15 -7 6 18 35
31 35 5 0 2 -9 -8 -20z m403 -5 c-3 -3 -9 2 -12 12 -6 14 -5 15 5 6 7 -7 10
-15 7 -18z m285 18 c-7 -2 -19 -2 -25 0 -7 3 -2 5 12 5 14 0 19 -2 13 -5z
m1142 -56 c61 -20 117 -37 125 -37 8 0 28 -7 44 -15 15 -8 34 -15 41 -15 7 0
18 -6 24 -14 10 -12 5 -12 -31 1 -23 8 -47 17 -52 21 -6 4 -38 14 -71 24 -33
9 -91 27 -130 39 -46 15 -103 24 -167 27 l-97 3 -4 -98 -3 -98 -2 105 -2 105
107 -6 c86 -5 130 -13 218 -42z m-747 -34 c-5 -26 -129 -66 -170 -55 -31 8
-58 35 -46 47 3 4 16 1 29 -5 27 -15 104 -9 144 12 40 21 47 21 43 1z m246
-41 c-6 -8 -44 20 -39 28 3 5 14 2 24 -8 10 -9 17 -18 15 -20z m-1387 12 c-3
-3 -12 -4 -19 -1 -8 3 -5 6 6 6 11 1 17 -2 13 -5z m156 -1 c-24 -2 -62 -2 -85
0 -24 2 -5 4 42 4 47 0 66 -2 43 -4z m74 1 c-3 -3 -12 -4 -19 -1 -8 3 -5 6 6
6 11 1 17 -2 13 -5z m-434 -11 c-7 -2 -19 -2 -25 0 -7 3 -2 5 12 5 14 0 19 -2
13 -5z m-68 -13 c-4 -6 8 -10 27 -11 18 0 27 -3 20 -6 -19 -8 -102 7 -102 18
0 5 14 9 31 9 17 0 28 -4 24 -10z m810 0 c3 -5 -3 -10 -14 -10 -10 0 -28 -3
-38 -6 -16 -5 -16 -4 1 10 23 18 42 21 51 6z m-708 -15 c0 -10 -6 -14 -14 -10
-8 3 -18 5 -21 6 -4 0 2 4 13 9 11 5 20 9 21 9 0 1 1 -6 1 -14z m2384 -2 c27
-10 49 -21 49 -24 0 -4 -21 1 -47 11 -27 9 -55 20 -63 23 -11 4 -12 6 -1 6 7
1 35 -7 62 -16z m-1964 -17 c3 -3 -59 -5 -138 -5 -79 1 -128 4 -109 8 45 8
239 6 247 -3z m1293 -16 c0 -5 -5 -10 -11 -10 -5 0 -7 5 -4 10 3 6 8 10 11 10
2 0 4 -4 4 -10z m824 -10 c33 -12 4 -15 -79 -9 -52 3 -64 6 -35 7 34 2 41 5
30 13 -16 10 47 3 84 -11z m-721 -7 c-13 -2 -33 -2 -45 0 -13 2 -3 4 22 4 25
0 35 -2 23 -4z m150 0 c-18 -2 -48 -2 -65 0 -18 2 -4 4 32 4 36 0 50 -2 33 -4z
m275 0 c-42 -2 -114 -2 -160 0 -46 1 -11 3 77 3 88 0 125 -2 83 -3z"/>
<path d="M1824 1756 c-33 -17 -87 -42 -120 -55 -32 -13 -69 -33 -82 -45 -13
-12 -27 -20 -30 -18 -4 1 -30 -9 -59 -24 -37 -20 -49 -32 -45 -43 4 -10 7 -11
10 -3 2 7 8 10 12 7 5 -3 25 4 45 15 20 11 40 18 46 15 5 -4 9 -2 9 4 0 5 10
13 23 17 12 4 25 11 29 17 3 6 20 12 36 13 16 1 48 14 71 28 23 15 47 24 53
20 7 -5 8 -3 3 6 -6 9 1 11 29 8 36 -4 36 -4 36 34 0 21 -1 38 -2 37 -2 -1
-30 -15 -64 -33z"/>
<path d="M1689 1075 c-1 -3 -2 -8 -3 -12 -1 -5 -5 -14 -10 -21 -11 -19 -1 -26
21 -13 10 6 13 11 6 11 -6 0 -10 9 -8 20 3 17 -2 30 -6 15z"/>
<path d="M1598 970 c-29 -30 -30 -33 -26 -105 3 -65 1 -75 -13 -75 -11 0 -20
14 -28 44 -13 55 -14 96 -2 96 5 0 13 9 16 21 4 11 16 25 28 30 18 8 17 8 -8
3 -16 -3 -47 -8 -67 -11 -42 -6 -43 -10 -29 -110 4 -29 3 -57 -2 -62 -4 -4 -5
-24 -2 -43 5 -26 14 -37 36 -45 41 -16 72 -6 59 17 -14 26 -13 30 10 30 11 0
20 -6 20 -12 0 -29 16 -38 46 -29 16 5 48 14 72 21 23 7 42 17 42 21 0 12 -39
31 -50 24 -5 -3 -31 -8 -57 -11 -35 -3 -42 -1 -28 5 20 10 20 10 0 11 -17 2
-16 3 5 10 36 11 52 11 45 0 -7 -12 24 -13 42 -2 7 4 19 27 27 50 16 46 12 68
-27 125 -26 38 -69 37 -109 -3z m92 -157 c0 -9 -57 27 -75 48 -14 16 -7 13 28
-11 26 -18 47 -35 47 -37z m-176 -22 c4 -5 3 -17 0 -26 -5 -13 -8 -14 -15 -3
-5 7 -9 19 -9 26 0 14 16 16 24 3z"/>
<path d="M1407 929 l-27 -42 19 -51 c20 -53 48 -71 43 -26 -1 14 -7 27 -12 28
-15 5 -12 58 4 97 20 47 5 44 -27 -6z"/>
<path d="M1544 905 c4 -15 2 -25 -4 -25 -6 0 -8 -5 -5 -10 4 -6 11 -8 16 -5
13 9 11 65 -2 65 -7 0 -9 -10 -5 -25z"/>
<path d="M1443 888 c2 -15 -1 -29 -7 -32 -6 -2 -3 -5 7 -5 19 -1 21 13 6 44
-8 17 -9 16 -6 -7z"/>
<path d="M1430 481 c0 -24 5 -30 30 -36 16 -3 49 -3 74 0 38 6 45 10 48 34 4
28 4 28 -35 19 -22 -5 -49 -6 -61 -3 -11 4 -29 9 -38 11 -14 4 -18 -1 -18 -25z"/>
<path d="M1625 450 c-4 -6 -6 -32 -4 -58 1 -26 -3 -67 -10 -92 -12 -42 -12
-45 9 -62 28 -23 57 -23 95 0 43 27 61 65 47 97 -7 14 -12 46 -12 70 0 43 -1
45 -27 44 -16 0 -23 -3 -18 -5 28 -12 -8 -164 -38 -164 -23 0 -37 22 -27 40
10 19 8 125 -2 135 -3 4 -9 1 -13 -5z"/>
<path d="M1583 444 c-13 -6 -2 -60 12 -57 11 3 19 63 8 62 -4 0 -13 -3 -20 -5z"/>
<path d="M1668 433 c7 -3 16 -2 19 1 4 3 -2 6 -13 5 -11 0 -14 -3 -6 -6z"/>
<path d="M1463 410 c-1 -11 4 -20 13 -20 16 0 16 2 8 24 -8 22 -19 20 -21 -4z"/>
<path d="M1670 410 c0 -5 5 -10 10 -10 6 0 10 5 10 10 0 6 -4 10 -10 10 -5 0
-10 -4 -10 -10z"/>
<path d="M1668 383 c6 -2 18 -2 25 0 6 3 1 5 -13 5 -14 0 -19 -2 -12 -5z"/>
<path d="M1468 373 c7 -3 16 -2 19 1 4 3 -2 6 -13 5 -11 0 -14 -3 -6 -6z"/>
<path d="M1590 364 c0 -17 17 -36 24 -26 3 5 -1 15 -9 22 -8 7 -15 9 -15 4z"/>
<path d="M1670 359 c0 -5 5 -7 10 -4 6 3 10 8 10 11 0 2 -4 4 -10 4 -5 0 -10
-5 -10 -11z"/>
<path d="M1468 353 c7 -3 16 -2 19 1 4 3 -2 6 -13 5 -11 0 -14 -3 -6 -6z"/>
<path d="M446 991 c-3 -5 1 -12 10 -15 20 -8 29 -1 19 13 -8 13 -22 14 -29 2z"/>
<path d="M613 886 c1 -16 9 -32 17 -34 12 -4 13 -2 4 9 -7 8 -14 23 -17 34 -4
13 -5 9 -4 -9z"/>
<path d="M712 883 c2 -14 8 -28 14 -30 7 -2 9 8 6 27 -5 37 -25 40 -20 3z"/>
<path d="M617 1200 c-24 -24 -23 -104 2 -129 11 -11 16 -23 13 -27 -4 -5 2 -2
12 6 11 8 17 10 13 4 -4 -7 0 -14 7 -17 16 -7 41 17 32 31 -3 5 0 23 6 40 9
24 9 39 -2 71 -11 35 -17 41 -39 39 -15 -1 -34 -9 -44 -18z"/>
<path d="M716 1193 c17 -33 18 -85 3 -100 -6 -6 -9 -17 -7 -25 3 -7 12 3 23
25 18 39 16 87 -6 114 -20 23 -28 14 -13 -14z"/>
<path d="M1387 1217 c-27 -19 -31 -76 -9 -117 11 -19 27 -36 36 -38 13 -3 11
4 -9 34 -28 42 -31 68 -9 104 15 24 15 24 10 -20 -4 -30 -1 -53 9 -70 26 -46
29 -54 17 -58 -7 -2 -10 -8 -7 -12 7 -11 65 9 65 22 0 5 4 7 9 3 13 -8 25 76
16 115 -4 20 -15 34 -32 41 -34 13 -76 11 -96 -4z"/>
<path d="M277 843 c-16 -15 -6 -33 17 -31 20 2 23 5 15 20 -10 19 -21 23 -32
11z"/>
<path d="M775 390 c-3 -5 -1 -10 5 -10 6 0 8 -4 5 -10 -3 -5 -1 -10 5 -10 6 0
8 -4 5 -10 -3 -5 -2 -10 4 -10 5 0 9 9 8 20 -1 11 -5 20 -10 20 -4 0 -5 5 -2
10 3 6 2 10 -4 10 -5 0 -13 -4 -16 -10z"/>
<path d="M420 391 c0 -7 -4 -9 -10 -6 -5 3 -10 1 -10 -5 0 -6 -4 -9 -8 -6 -4
2 -13 -4 -20 -15 -7 -11 -8 -19 -2 -19 5 0 10 4 10 10 0 5 8 7 18 3 9 -3 14
-3 10 2 -4 4 0 14 10 21 9 7 14 16 9 20 -4 4 -7 2 -7 -5z"/>
</g>
</svg>
