<?xml version="1.0" standalone="no"?>
<!DOCTYPE svg PUBLIC "-//W3C//DTD SVG 20010904//EN"
 "http://www.w3.org/TR/2001/REC-SVG-20010904/DTD/svg10.dtd">
<svg version="1.0" xmlns="http://www.w3.org/2000/svg"
 width="300.000000pt" height="200.000000pt" viewBox="0 0 300.000000 200.000000"
 preserveAspectRatio="xMidYMid meet">
<metadata>
Created by potrace 1.10, written by Peter Selinger 2001-2011
</metadata>
<g transform="translate(0.000000,200.000000) scale(0.100000,-0.100000)"
fill="#000000" stroke="none">
<path d="M0 1000 l0 -1000 1500 0 1500 0 0 1000 0 1000 -1500 0 -1500 0 0
-1000z m1682 23 c2 -450 3 -819 2 -821 -1 -1 -9 0 -18 4 -16 6 -17 31 -15 303
1 163 7 333 13 379 7 61 7 89 -2 102 -15 25 -17 740 -2 740 12 0 10 59 -3 67
-4 2 -13 1 -20 -4 -7 -5 -30 -15 -52 -22 -22 -8 -52 -23 -66 -33 -15 -11 -37
-18 -50 -16 -18 2 1 16 86 60 61 31 113 56 117 57 4 1 9 -367 10 -816z m88 96
c0 -396 -3 -718 -7 -716 -9 5 -6 1437 2 1437 3 0 5 -324 5 -721z m-330 600
c15 -55 27 -69 36 -45 4 10 18 16 38 16 24 0 28 3 16 11 -12 8 -10 9 9 4 16
-5 21 -4 17 4 -7 12 33 32 47 24 4 -2 7 1 7 6 0 6 7 11 16 11 22 0 12 -23 -17
-37 -56 -29 -114 -53 -126 -53 -7 0 -13 -7 -13 -16 0 -14 120 -390 140 -439
26 -63 22 -67 -30 -32 -62 42 -65 41 -64 -21 l1 -56 -43 50 c-25 27 -44 42
-44 34 -1 -10 -10 -4 -26 15 -71 84 -88 109 -73 103 9 -4 21 -2 26 3 6 6 9 1
9 -13 -1 -14 4 -22 12 -20 8 1 11 -1 8 -6 -6 -11 26 -40 69 -64 30 -16 32 -16
43 3 7 10 21 19 32 19 14 0 18 5 14 18 -4 9 3 2 15 -15 11 -18 23 -33 25 -33
8 0 -13 75 -47 170 -19 52 -32 101 -30 108 3 6 1 12 -4 12 -7 0 -40 88 -49
133 -1 4 -3 10 -4 15 -4 9 -7 30 -9 58 0 11 -12 26 -25 34 -22 11 -29 9 -88
-35 -34 -27 -67 -53 -73 -59 -5 -6 -22 -17 -37 -23 -20 -9 -26 -17 -22 -30 5
-15 4 -16 -5 -3 -10 13 -15 11 -35 -12 -24 -27 -24 -27 -6 -65 14 -31 42 -111
51 -151 1 -4 5 -17 10 -30 5 -13 9 -32 9 -43 0 -10 4 -19 9 -19 5 0 13 -9 16
-20 4 -12 11 -17 18 -13 9 5 9 3 0 -8 -7 -9 -8 -20 -3 -28 4 -8 6 -20 3 -27
-2 -7 1 -22 7 -34 11 -20 12 -20 36 16 24 34 24 37 7 50 -10 7 -21 14 -25 14
-15 0 -8 43 9 55 14 11 15 16 5 28 -11 12 -10 17 0 23 7 4 10 4 6 -1 -4 -4 9
-27 29 -51 37 -46 32 -54 -17 -29 -17 9 -30 11 -30 5 0 -5 21 -21 48 -34 80
-42 85 -47 71 -81 -7 -17 -14 -32 -16 -34 -5 -7 -42 44 -43 59 0 9 3 11 8 4 9
-13 42 -26 42 -16 0 4 -11 15 -24 24 -23 17 -24 17 -50 -31 -21 -40 -31 -49
-51 -47 -20 1 -25 6 -25 26 0 14 -32 122 -71 239 -66 202 -69 214 -52 227 10
7 59 42 108 76 50 34 109 77 133 95 24 18 47 33 51 33 4 0 14 -23 21 -51z
m290 -9 c0 -5 -5 -10 -11 -10 -5 0 -7 5 -4 10 3 6 8 10 11 10 2 0 4 -4 4 -10z
m-325 -10 c-3 -5 -14 -10 -23 -10 -15 0 -15 2 -2 10 20 13 33 13 25 0z m-95
-64 c0 -2 -12 -11 -27 -20 l-28 -17 24 20 c23 21 31 25 31 17z m213 -10 c4
-10 1 -13 -8 -9 -8 3 -12 9 -9 14 7 12 11 11 17 -5z m-86 -38 c-3 -8 -6 -5 -6
6 -1 11 2 17 5 13 3 -3 4 -12 1 -19z m-267 -58 c0 -5 -2 -10 -4 -10 -3 0 -8 5
-11 10 -3 6 -1 10 4 10 6 0 11 -4 11 -10z m-683 -45 c-64 -18 -92 -37 -124
-88 -45 -72 -27 -159 46 -217 l40 -33 -24 -19 c-14 -11 -25 -26 -25 -35 0 -8
39 -75 88 -149 67 -103 91 -134 106 -132 11 2 21 9 24 17 3 9 -1 11 -16 7 -20
-7 -30 8 -38 54 -2 8 -12 22 -23 31 -11 9 -17 20 -13 24 4 5 2 5 -5 1 -7 -4
-16 2 -22 13 -10 18 -8 19 31 13 38 -5 41 -3 34 14 -4 10 -10 40 -13 67 -6 49
4 60 27 32 7 -8 9 -15 4 -15 -5 0 -8 -26 -7 -57 1 -32 2 -65 3 -74 0 -9 8 -19
18 -23 9 -3 24 -9 32 -13 13 -5 13 -4 1 11 -21 25 1 45 24 22 21 -21 28 -20
49 3 10 11 33 27 51 35 26 13 32 21 28 37 -3 11 -17 25 -30 30 -13 5 -21 14
-18 19 4 6 -1 24 -9 41 -9 17 -13 35 -11 40 3 4 1 10 -5 14 -5 3 -10 -1 -10
-9 0 -9 -9 -16 -20 -16 -17 0 -19 3 -8 19 10 16 9 23 -5 39 -16 17 -16 20 -2
32 13 11 18 9 33 -11 9 -13 17 -28 17 -33 0 -9 16 -20 50 -32 18 -6 16 -8 -10
-14 l-30 -6 38 -5 c51 -7 61 1 52 42 -13 57 -13 90 -1 94 41 12 67 15 61 5 -3
-5 -17 -10 -29 -10 -22 0 -23 -3 -16 -37 4 -21 11 -50 15 -65 6 -22 4 -28 -9
-28 -9 0 -16 -7 -16 -15 0 -8 5 -15 11 -15 5 0 7 -5 4 -11 -4 -5 -1 -23 5 -40
10 -24 19 -29 49 -30 l36 -2 -35 -6 c-19 -3 -50 -17 -68 -31 -19 -14 -35 -23
-36 -20 -2 3 -10 -1 -19 -9 -9 -7 -14 -17 -11 -22 3 -5 -2 -6 -10 -3 -22 8
-20 21 4 29 11 3 20 11 20 16 0 16 -16 10 -40 -16 -21 -22 -21 -25 -6 -31 13
-5 4 -13 -36 -33 -48 -24 -53 -30 -56 -64 -4 -43 5 -45 82 -22 26 8 53 12 60
8 6 -3 8 -3 4 1 -4 4 8 21 27 37 34 30 97 40 111 18 5 -8 -4 -10 -30 -7 -20 2
-36 0 -36 -5 0 -4 -4 -5 -10 -2 -5 3 -10 -1 -10 -9 0 -8 9 -20 21 -26 11 -7
29 -20 40 -31 10 -10 31 -19 47 -20 15 0 36 -4 47 -9 16 -7 11 -9 -20 -9 -22
-1 -50 6 -61 14 -20 13 -22 12 -33 -13 -14 -29 -12 -30 48 -64 33 -18 39 -45
21 -92 -13 -34 -30 -33 -30 2 0 23 -7 32 -36 46 -22 10 -47 15 -64 11 -18 -4
-34 1 -53 15 -15 12 -32 18 -38 14 -8 -4 -9 -3 -5 4 4 7 1 12 -7 12 -7 0 -24
11 -37 25 -13 14 -21 25 -17 25 3 0 23 -11 43 -25 20 -14 41 -25 45 -25 9 0
51 63 62 94 4 10 10 17 12 14 8 -8 -25 -81 -46 -104 -19 -20 -19 -21 7 -33 34
-15 46 -5 75 66 18 44 20 58 10 61 -8 3 -22 13 -32 23 -20 20 -34 25 -24 9 17
-28 -166 -84 -190 -58 -7 8 -6 9 3 4 6 -4 12 -3 12 1 0 16 -23 33 -45 33 -13
1 -33 21 -60 63 -51 78 -67 97 -77 91 -4 -3 -5 1 -2 9 3 8 -2 22 -11 31 -9 9
-14 16 -10 16 4 0 -3 12 -14 26 -31 39 -25 118 7 107 10 -3 4 5 -13 18 -16 13
-33 23 -37 22 -5 -2 -8 4 -8 13 0 8 -4 13 -8 10 -5 -3 -9 0 -10 7 0 7 -4 26
-8 42 -11 45 -8 133 6 150 6 8 9 19 6 24 -4 5 -1 13 5 17 8 5 10 2 5 -7 -4 -8
0 -5 8 5 9 11 16 16 16 10 0 -5 3 -5 8 1 14 19 77 44 112 43 34 0 33 0 -13
-13z m-33 -36 c-10 -12 -32 -30 -49 -41 -17 -12 -11 -4 15 20 49 45 64 54 34
21z m148 -4 c69 -47 88 -163 33 -199 -13 -9 -41 -16 -61 -16 -31 0 -44 7 -76
42 -36 39 -40 48 -40 83 0 39 4 50 38 81 42 41 58 42 106 9z m895 -57 c-3 -7
-5 -2 -5 12 0 14 2 19 5 13 2 -7 2 -19 0 -25z m-1057 7 c0 -6 -77 -55 -87 -55
-7 0 78 60 85 60 1 0 2 -2 2 -5z m777 -37 c-3 -8 -6 -5 -6 6 -1 11 2 17 5 13
3 -3 4 -12 1 -19z m-250 -38 c-7 -33 0 -38 17 -14 9 11 19 13 41 8 l30 -8 -29
-6 c-16 -3 -31 -11 -34 -18 -3 -11 0 -11 16 -1 12 7 27 9 38 4 17 -8 16 -9 -6
-13 -37 -6 -49 -22 -18 -22 15 0 30 -5 34 -11 4 -8 -3 -9 -25 -4 -20 4 -31 3
-31 -4 0 -6 6 -11 14 -11 17 0 31 -18 22 -27 -3 -3 -12 0 -20 6 -12 10 -20 9
-40 -4 -47 -31 -98 13 -77 68 6 15 15 27 20 27 5 0 14 14 20 30 5 17 15 30 22
30 7 0 9 -10 6 -30z m-467 -92 c0 -5 -4 -8 -9 -8 -14 0 -71 76 -64 84 7 7 72
-62 73 -76z m217 75 c-4 -3 -2 -12 5 -20 8 -11 7 -12 -6 -7 -9 3 -16 9 -16 13
0 9 11 21 18 21 3 0 2 -3 -1 -7z m542 -53 c0 -8 -6 0 -14 19 -8 18 -15 36 -15
40 1 13 29 -45 29 -59z m-99 42 c0 -14 -39 -32 -46 -21 -4 6 0 15 7 20 17 11
39 12 39 1z m-764 -27 c-11 -8 -25 -15 -30 -15 -6 0 -2 7 8 15 11 8 25 15 30
15 6 0 2 -7 -8 -15z m388 -16 c6 -5 -16 -9 -52 -9 -56 0 -72 6 -57 22 8 8 98
-3 109 -13z m943 -11 c-3 -8 -6 -5 -6 6 -1 11 2 17 5 13 3 -3 4 -12 1 -19z
m-564 -23 c45 -19 47 -22 41 -50 -3 -16 -8 -32 -10 -34 -8 -9 -76 44 -85 66
-11 30 -12 46 -1 41 4 -1 29 -12 55 -23z m-544 -12 c-12 -15 -12 -16 6 -9 14
5 17 4 9 -4 -6 -6 -18 -8 -28 -4 -15 6 -15 7 1 20 24 18 28 17 12 -3z m-149
-7 c0 -3 -4 -8 -10 -11 -5 -3 -10 -1 -10 4 0 6 5 11 10 11 6 0 10 -2 10 -4z
m85 -26 c-8 -13 1 -13 26 0 10 6 19 8 19 6 0 -3 -14 -13 -31 -22 -17 -8 -28
-11 -25 -5 9 14 6 14 -30 1 -30 -11 -55 -52 -58 -96 -1 -31 -2 -30 -21 6 -16
31 -12 56 7 44 6 -4 8 -3 5 3 -8 13 27 42 72 58 45 17 43 17 36 5z m370 -19
c-21 -20 -78 -42 -60 -23 10 11 66 42 75 42 2 0 -4 -9 -15 -19z m-391 -37 c9
-24 8 -26 -14 -14 -11 6 -18 15 -15 21 9 14 22 11 29 -7z m646 -13 c0 -13 -48
-34 -60 -26 -9 6 -6 13 11 25 21 17 49 17 49 1z m550 5 c0 -3 -4 -8 -10 -11
-5 -3 -10 -1 -10 4 0 6 5 11 10 11 6 0 10 -2 10 -4z m-1090 -18 c0 -7 11 -24
25 -38 l25 -27 -20 -18 c-11 -10 -20 -13 -20 -7 0 6 6 12 13 15 8 3 5 12 -10
29 -13 13 -23 29 -23 36 0 6 -8 9 -17 6 -15 -5 -16 -4 -3 5 20 14 30 14 30 -1z
m614 -34 c23 -9 21 -110 -3 -167 -15 -35 -26 -46 -50 -52 -16 -3 -38 -2 -48 3
-20 11 -78 11 -88 0 -4 -4 -12 -5 -18 -3 -7 2 -27 6 -45 9 -40 5 -55 16 -24
16 20 0 22 5 22 63 0 56 -3 65 -22 74 -20 9 -18 10 20 17 24 3 51 2 60 -3 14
-9 12 -10 -13 -11 l-30 0 0 -75 0 -75 28 0 c16 0 27 5 26 13 -1 6 -1 38 0 71
l1 59 54 -7 c51 -6 54 -5 60 19 4 14 11 25 16 25 19 0 21 -23 5 -66 l-17 -44
-54 0 c-53 0 -54 -1 -54 -29 0 -26 4 -30 38 -34 90 -14 85 -15 103 33 20 51
24 122 9 151 -11 20 -4 24 24 13z m146 -71 c0 -23 16 -14 46 27 16 22 32 40
35 40 3 0 17 -25 31 -56 24 -51 27 -94 8 -94 -5 0 -6 8 -3 18 5 21 -25 76 -43
79 -6 1 -16 -9 -23 -23 -10 -23 -9 -25 8 -19 29 9 35 -12 12 -44 -12 -16 -21
-34 -21 -40 0 -6 -4 -11 -10 -11 -5 0 -6 -7 -3 -17 4 -9 2 -14 -3 -10 -5 3
-16 -8 -23 -24 -7 -16 -17 -26 -24 -22 -7 4 -8 0 -4 -11 5 -11 3 -15 -4 -10
-7 4 -10 1 -7 -7 7 -20 -38 -52 -62 -44 -19 6 -29 45 -12 45 4 0 6 17 4 39 -4
35 -1 39 23 45 15 4 29 6 31 4 1 -2 -8 -30 -21 -63 -14 -32 -22 -61 -20 -64 6
-5 2 -11 60 83 27 44 62 94 78 113 33 37 26 42 -18 12 -16 -11 -55 -33 -87
-49 -44 -23 -59 -37 -68 -64 -6 -18 -10 -38 -8 -42 2 -9 -11 -162 -18 -199 -1
-11 -6 -47 -9 -81 l-7 -62 71 -46 c40 -25 81 -46 92 -46 11 0 18 -4 15 -9 -9
-13 39 -41 76 -43 18 -2 38 -9 44 -17 8 -11 12 3 17 55 8 87 46 374 57 434 38
205 48 223 25 49 -8 -63 -20 -152 -25 -199 -6 -47 -18 -129 -26 -183 -8 -54
-17 -123 -20 -155 -3 -31 -7 -58 -9 -60 -2 -2 -16 5 -32 16 -47 34 -256 166
-285 181 -20 10 -26 20 -23 35 9 40 34 271 36 331 1 33 5 65 10 70 4 6 12 26
18 45 7 25 10 28 8 10 -2 -35 12 -37 34 -3 10 15 19 22 19 15 0 -7 5 -10 10
-7 6 4 8 10 5 15 -3 5 3 7 14 5 10 -2 27 2 37 9 17 13 16 14 -4 25 -12 6 -22
18 -22 26 0 19 -15 19 -34 0 -29 -29 -29 6 0 36 l29 30 12 -28 c7 -15 12 -34
13 -40z m-670 47 c0 -5 -4 -10 -10 -10 -5 0 -10 5 -10 10 0 6 5 10 10 10 6 0
10 -4 10 -10z m930 -70 c0 -7 -8 -2 -18 10 -25 30 -38 12 -46 -64 -3 -33 -8
-61 -11 -64 -2 -3 0 -12 5 -22 8 -15 6 -16 -31 -6 -30 8 -36 12 -22 17 10 3
21 2 24 -3 8 -12 18 30 25 97 l5 50 -19 -39 c-19 -37 -19 -37 -24 -13 -4 18 4
39 26 69 l30 44 28 -32 c15 -17 28 -37 28 -44z m-705 -76 c-3 -19 -9 -34 -14
-34 -10 0 -14 125 -5 153 11 32 28 -74 19 -119z m355 98 c0 -7 -4 -10 -10 -7
-5 3 -10 16 -10 28 0 18 2 19 10 7 5 -8 10 -21 10 -28z m-568 6 c-7 -7 -12 -8
-12 -2 0 14 12 26 19 19 2 -3 -1 -11 -7 -17z m-112 -7 c0 -10 -30 -24 -37 -17
-3 3 -2 9 2 15 8 13 35 15 35 2z m80 -16 c-7 -8 -17 -15 -23 -15 -6 0 -2 7 9
15 25 19 30 19 14 0z m-160 -65 c6 -11 8 -20 6 -20 -3 0 -10 9 -16 20 -6 11
-8 20 -6 20 3 0 10 -9 16 -20z m988 -43 c3 -15 -2 -18 -30 -15 -22 2 -34 9
-36 21 -3 15 2 18 30 15 22 -2 34 -9 36 -21z m-365 -89 c45 -21 48 -24 43 -52
-4 -16 -8 -31 -10 -33 -8 -8 -86 48 -86 61 0 8 -3 21 -6 30 -8 21 0 20 59 -6z
m-153 -101 c0 -60 -29 -130 -59 -147 -37 -19 -43 0 -12 35 27 31 51 104 51
156 0 11 5 17 10 14 6 -3 10 -30 10 -58z m247 -179 c-3 -8 -6 -5 -6 6 -1 11 2
17 5 13 3 -3 4 -12 1 -19z m49 -85 c-7 -7 -26 7 -26 19 0 6 6 6 15 -2 9 -7 13
-15 11 -17z m692 2 c-9 -10 -201 -18 -195 -9 3 5 49 10 103 12 54 1 95 0 92
-3z m130 -1 c25 -7 30 -24 7 -24 -8 0 -15 4 -15 9 0 6 -15 12 -32 14 -25 3
-27 4 -8 5 14 1 35 -1 48 -4z m-601 -36 c-3 -7 -5 -2 -5 12 0 14 2 19 5 13 2
-7 2 -19 0 -25z m250 -5 c-3 -10 -5 -4 -5 12 0 17 2 24 5 18 2 -7 2 -21 0 -30z
m-20 -55 c-2 -18 -4 -6 -4 27 0 33 2 48 4 33 2 -15 2 -42 0 -60z m-381 44 c-4
-3 -14 2 -24 12 -16 18 -16 18 6 6 13 -6 21 -14 18 -18z m868 9 c4 -5 -3 -7
-14 -4 -23 6 -26 13 -6 13 8 0 17 -4 20 -9z m60 -20 c3 -4 -6 -6 -19 -3 -14 2
-25 6 -25 8 0 8 39 4 44 -5z m-849 -31 c3 -5 1 -10 -4 -10 -6 0 -11 5 -11 10
0 6 2 10 4 10 3 0 8 -4 11 -10z m1005 -22 c0 -4 -15 -2 -32 3 -18 5 -34 9 -35
9 -2 0 -3 4 -3 9 0 4 16 3 35 -3 19 -6 35 -14 35 -18z m-1312 -4 c26 -4 42
-11 42 -20 0 -10 -12 -14 -42 -13 -35 1 -38 2 -18 8 65 18 -58 26 -420 26
-157 0 -267 3 -245 7 46 7 619 1 683 -8z m472 -18 c0 -2 -9 -2 -20 1 -11 3
-20 9 -20 15 0 5 9 4 20 -2 11 -6 20 -12 20 -14z m157 -13 c-3 -10 -5 -4 -5
12 0 17 2 24 5 18 2 -7 2 -21 0 -30z m-1372 17 c-18 -7 -17 -8 10 -15 46 -11
54 -16 15 -10 -19 3 -46 6 -59 5 -12 0 -28 3 -34 7 -14 9 20 22 58 22 25 0 27
-2 10 -9z m2305 -56 c47 -10 -22 -12 -442 -13 -274 -1 -498 2 -498 7 0 4 201
6 447 5 391 -2 444 0 418 12 -16 8 -36 14 -42 15 -7 0 -13 4 -13 9 0 6 17 3
38 -6 20 -9 62 -22 92 -29z m-2167 29 c-13 -2 -35 -2 -50 0 -16 2 -5 4 22 4
28 0 40 -2 28 -4z m102 -3 c4 -6 -11 -10 -37 -10 -31 0 -39 3 -28 10 20 13 57
13 65 0z m338 3 c-13 -2 -33 -2 -45 0 -13 2 -3 4 22 4 25 0 35 -2 23 -4z m110
0 c-7 -2 -19 -2 -25 0 -7 3 -2 5 12 5 14 0 19 -2 13 -5z m-240 -10 c-34 -2
-93 -2 -130 0 -37 2 -9 3 62 3 72 0 102 -1 68 -3z m907 -15 c0 -5 -16 -8 -36
-8 -19 0 -33 3 -31 8 3 4 19 7 36 7 17 0 31 -3 31 -7z"/>
<path d="M744 1098 c-3 -4 4 -8 15 -8 11 0 23 -4 26 -10 3 -5 -4 -10 -16 -10
-18 0 -20 -2 -9 -15 7 -9 19 -14 26 -11 8 3 18 -2 23 -12 5 -9 13 -14 17 -10
4 4 2 14 -5 21 -6 8 -9 22 -5 31 4 11 1 16 -10 16 -9 0 -16 4 -16 8 0 4 -9 8
-21 8 -11 0 -23 -4 -25 -8z"/>
<path d="M580 904 c0 -5 8 -19 18 -30 17 -22 17 -22 37 -2 17 17 17 18 2 12
-11 -4 -25 0 -37 11 -11 10 -20 14 -20 9z"/>
<path d="M847 676 c-4 -10 -3 -15 3 -11 6 3 10 1 10 -5 0 -6 5 -8 10 -5 6 3
10 14 10 23 0 13 -2 14 -9 3 -7 -11 -9 -11 -13 0 -3 9 -6 8 -11 -5z"/>
<path d="M888 652 c-12 -15 -11 -16 5 -3 15 12 17 11 17 -2 0 -9 4 -18 8 -21
4 -2 8 4 8 14 0 26 -22 33 -38 12z"/>
<path d="M540 1443 c0 -5 15 -15 33 -23 17 -8 36 -25 42 -37 11 -27 25 -30 25
-7 0 23 -55 74 -79 74 -12 0 -21 -3 -21 -7z"/>
<path d="M503 1412 c-13 -9 -24 -28 -25 -42 -2 -29 26 -76 54 -91 10 -5 16
-14 14 -18 -8 -12 73 4 86 17 7 7 4 19 -10 37 -12 14 -19 32 -16 39 6 16 -44
59 -57 50 -5 -3 -8 0 -7 7 5 19 -15 20 -39 1z"/>
<path d="M630 1336 c0 -8 5 -18 10 -21 6 -3 10 3 10 14 0 12 -4 21 -10 21 -5
0 -10 -6 -10 -14z"/>
<path d="M932 1277 c-7 -8 -13 -24 -14 -37 -3 -21 2 -24 30 -26 41 -2 59 24
37 52 -8 11 -15 15 -15 10 0 -5 -6 -3 -14 3 -10 8 -16 8 -24 -2z"/>
<path d="M1140 1186 c0 -2 7 -6 15 -10 8 -3 15 -1 15 4 0 6 -7 10 -15 10 -8 0
-15 -2 -15 -4z"/>
<path d="M1110 957 c0 -8 12 -14 30 -14 16 0 31 6 34 14 3 7 1 13 -4 13 -6 0
-10 -5 -10 -12 0 -9 -3 -9 -12 0 -16 16 -38 15 -38 -1z"/>
<path d="M1500 271 c0 -5 7 -11 15 -15 8 -3 15 -1 15 3 0 5 -7 11 -15 15 -8 3
-15 1 -15 -3z"/>
<path d="M1165 730 c3 -5 11 -10 16 -10 6 0 7 5 4 10 -3 6 -11 10 -16 10 -6 0
-7 -4 -4 -10z"/>
</g>
</svg>
