<?xml version="1.0" standalone="no"?>
<!DOCTYPE svg PUBLIC "-//W3C//DTD SVG 20010904//EN"
 "http://www.w3.org/TR/2001/REC-SVG-20010904/DTD/svg10.dtd">
<svg version="1.0" xmlns="http://www.w3.org/2000/svg"
 width="300.000000pt" height="300.000000pt" viewBox="0 0 300.000000 300.000000"
 preserveAspectRatio="xMidYMid meet">
<metadata>
Created by potrace 1.10, written by Peter Selinger 2001-2011
</metadata>
<g transform="translate(0.000000,300.000000) scale(0.100000,-0.100000)"
fill="#000000" stroke="none">
<path d="M1470 2669 c-118 -17 -211 -65 -301 -154 -173 -172 -203 -448 -71
-651 43 -65 121 -143 171 -169 l33 -17 -61 -58 c-34 -32 -61 -63 -61 -69 0
-33 -21 -1 -50 74 -20 55 -40 91 -55 101 -21 14 -51 14 -262 3 -216 -11 -240
-14 -260 -32 -13 -11 -23 -25 -23 -29 0 -5 39 -93 86 -196 75 -163 86 -193 85
-238 -3 -77 42 -123 135 -138 49 -9 130 10 147 34 7 9 30 23 52 30 22 7 57 21
77 31 21 11 56 19 80 19 l42 0 -53 -26 c-50 -25 -106 -88 -181 -202 -13 -21
-19 -22 -43 -13 -72 28 -129 0 -173 -83 -23 -43 -27 -60 -18 -73 32 -53 293
-191 338 -179 12 4 51 50 94 115 l74 109 61 17 c34 9 69 18 77 20 12 4 15 -6
16 -44 1 -62 49 -165 99 -214 49 -47 91 -61 144 -47 41 11 72 42 170 173 24
31 66 73 92 93 27 20 53 43 58 52 5 10 32 25 60 35 65 23 131 73 153 117 12
22 18 58 18 98 0 46 5 70 19 90 18 24 19 36 11 120 -11 112 -27 169 -52 187
-11 7 -26 39 -35 71 -31 120 -72 167 -160 180 -24 3 -43 8 -43 9 0 2 16 26 35
55 19 29 35 57 35 63 0 6 12 28 26 48 37 54 41 123 14 239 -12 52 -36 123 -52
157 -34 73 -118 168 -188 213 -102 65 -245 97 -360 79z m223 -49 c79 -25 173
-86 227 -148 38 -44 91 -139 105 -189 6 -21 5 -22 -24 -7 -17 9 -39 14 -49 12
-12 -2 -28 14 -53 52 -99 154 -311 257 -508 249 -44 -2 -77 -1 -73 3 4 3 36
15 72 27 89 27 216 28 303 1z m-104 -85 c93 -30 179 -84 244 -153 62 -67 76
-97 55 -119 -15 -14 -17 -12 -33 20 -25 54 -126 144 -199 178 -94 44 -159 59
-258 59 -96 0 -164 -18 -215 -56 -51 -39 -51 -28 1 25 46 46 60 53 151 75 42
10 179 -6 254 -29z m-65 -65 c96 -24 180 -68 239 -125 55 -54 62 -92 35 -185
-20 -73 -23 -98 -5 -60 11 24 11 23 15 -17 2 -24 7 -43 11 -43 4 0 13 -22 20
-50 12 -46 11 -52 -8 -79 -12 -16 -21 -33 -21 -39 0 -5 -24 -33 -52 -61 -52
-51 -160 -112 -202 -115 -11 0 -30 -9 -40 -20 -18 -18 -18 -19 32 -14 112 11
267 126 318 237 18 39 37 51 48 32 11 -18 -95 -161 -149 -202 -86 -65 -225
-106 -278 -82 -12 6 -56 18 -97 28 -58 14 -80 24 -99 46 -13 16 -30 29 -37 29
-21 0 -135 139 -161 196 -32 70 -49 198 -36 267 9 44 18 31 19 -26 2 -66 21
-159 38 -182 9 -13 20 -16 38 -12 22 6 27 16 42 83 22 103 53 154 157 256 49
48 89 92 89 97 0 34 -68 52 -122 32 -44 -16 -78 -21 -78 -12 0 9 44 22 99 28
19 2 37 6 40 8 10 10 71 4 145 -15z m-304 -35 c-7 -8 -17 -15 -23 -15 -25 0
-93 -94 -112 -154 -3 -10 -8 -17 -10 -14 -8 8 25 110 47 146 11 18 25 32 31
31 7 -1 19 0 27 4 17 6 43 15 49 16 2 1 -2 -6 -9 -14z m197 -2 c2 -6 -15 -25
-39 -41 -104 -72 -185 -192 -208 -311 -6 -31 -13 -63 -16 -71 -10 -30 -32 19
-43 98 -28 188 40 288 219 326 71 16 82 15 87 -1z m519 -198 c-34 -31 -46 -64
-46 -126 0 -62 19 -109 56 -137 29 -21 29 -21 5 -22 -14 0 -38 15 -61 38 -44
44 -59 104 -41 168 13 44 26 63 61 87 38 26 57 21 26 -8z m98 -28 c30 -41 30
-163 0 -203 -28 -38 -37 -39 -72 -9 -59 50 -67 154 -15 215 31 37 58 36 87 -3z
m-44 -285 c0 -29 -102 -148 -167 -193 -60 -42 -63 -36 -7 15 27 24 66 73 88
109 33 58 47 71 79 76 4 0 7 -2 7 -7z m45 -153 c5 -5 1 -9 -12 -9 -11 0 -37
-11 -57 -25 -31 -21 -40 -23 -61 -13 l-25 11 27 29 c25 27 32 29 73 23 25 -4
49 -11 55 -16z m81 -89 c12 -30 25 -69 29 -86 6 -30 4 -33 -48 -61 l-54 -30
-12 48 c-7 26 -26 68 -42 94 -16 25 -27 51 -23 57 11 17 68 38 99 35 26 -2 33
-9 51 -57z m-1053 28 c14 -11 172 -397 165 -403 -2 -1 -115 -5 -253 -9 l-250
-7 -83 183 c-45 101 -82 188 -82 195 0 23 27 27 235 39 115 6 219 12 231 12
11 1 28 -4 37 -10z m850 -23 c67 -51 100 -124 105 -236 5 -97 -8 -153 -41
-170 -20 -11 -124 -7 -158 6 -15 5 -14 10 2 43 21 39 25 106 10 146 -9 22 -7
26 17 35 24 8 21 10 -24 10 -44 1 -53 4 -59 24 l-8 22 -4 -22 c-4 -20 -11 -23
-51 -23 -30 0 -65 9 -96 25 -78 39 -108 35 -174 -29 -49 -46 -63 -54 -96 -54
l-38 0 6 51 c4 29 4 49 0 45 -11 -12 -36 -120 -43 -188 l-6 -65 -38 102 -39
102 38 46 c21 25 55 59 76 75 l37 30 62 -20 c129 -44 312 -22 421 50 24 16 46
29 49 29 3 1 27 -15 52 -34z m-311 -170 c38 -20 61 -25 121 -25 84 0 87 -2 87
-77 0 -50 -27 -116 -44 -109 -6 3 -30 11 -53 18 -32 9 -43 17 -43 32 0 17 -3
16 -25 -8 -20 -22 -32 -26 -77 -26 -52 0 -77 12 -106 51 -10 13 -9 24 4 54 19
46 13 55 -11 18 -42 -66 -66 -92 -80 -87 -30 12 -14 47 52 115 76 80 98 85
175 44z m585 8 c2 -6 -7 -13 -20 -17 -13 -3 -36 -15 -51 -27 -24 -19 -27 -27
-25 -80 1 -32 6 -64 11 -71 5 -8 6 14 2 54 l-6 66 41 21 c44 23 71 27 71 11 0
-6 5 -54 11 -106 9 -85 8 -98 -7 -115 -20 -22 -86 -48 -133 -51 -31 -3 -34 0
-45 37 -10 32 -10 46 0 70 7 17 13 60 14 97 l0 68 58 29 c58 31 73 33 79 14z
m-842 -100 c-15 -35 -17 -61 -6 -67 6 -4 11 -16 11 -27 0 -15 -7 -19 -35 -19
l-34 0 5 53 c8 73 10 77 40 77 21 0 25 -3 19 -17z m115 -88 l23 -25 -51 0
c-29 0 -52 5 -52 10 0 6 6 10 14 10 7 0 19 7 26 15 16 19 12 20 40 -10z m268
-88 c-3 -35 -7 -42 -30 -48 l-28 -7 0 58 0 59 31 -11 c28 -9 30 -14 27 -51z
m-90 26 c3 -20 -3 -21 -110 -27 -62 -3 -148 -7 -190 -9 l-78 -2 0 27 0 28 178
2 c215 4 196 6 200 -19z m-398 -17 l0 -25 -126 -3 c-109 -3 -128 -1 -141 15
-9 9 -23 18 -32 18 -46 4 80 16 182 18 l117 1 0 -24z m604 -3 c56 -14 110 -14
148 2 14 5 18 -3 24 -52 22 -161 -6 -251 -105 -327 -33 -26 -66 -57 -73 -69
-10 -20 -12 -18 -28 29 -32 94 -91 166 -147 180 -12 4 -23 9 -23 13 0 11 83
87 109 101 14 7 36 16 50 21 l26 7 -28 1 c-61 2 -166 -71 -202 -140 -10 -18
-25 -28 -47 -32 -18 -2 -48 -11 -65 -18 -32 -13 -34 -12 -73 26 -38 37 -69 90
-85 143 -6 22 -5 22 102 23 59 1 152 4 206 8 112 7 131 19 125 79 -3 26 -1 31
11 27 9 -4 43 -13 75 -22z m-1032 -8 c-33 -28 -52 -31 -70 -13 -26 26 -13 38
44 38 l56 0 -30 -25z m146 -30 c27 -32 27 -36 3 -66 -17 -21 -28 -24 -83 -24
-77 0 -124 18 -144 56 l-14 29 34 -17 35 -16 35 38 c32 34 39 37 73 32 23 -4
47 -17 61 -32z m692 11 c0 -3 -7 -12 -16 -20 -21 -21 -104 -22 -104 -2 0 10
14 16 43 19 23 2 50 4 60 5 9 1 17 0 17 -2z m-140 -20 c0 -14 -16 -16 -110
-16 -81 0 -110 3 -110 13 0 9 30 13 110 15 95 3 110 2 110 -12z m-455 -11
c-38 -18 -55 -18 -55 -2 0 7 16 13 43 14 l42 2 -30 -14z m1135 -49 c0 -55 -4
-69 -26 -96 -23 -27 -117 -90 -135 -90 -4 0 -1 17 7 38 7 20 13 70 14 110 l0
72 33 1 c25 0 74 13 105 28 1 0 2 -28 2 -63z m-904 14 c7 -14 20 -47 30 -75
11 -34 34 -67 70 -102 30 -29 53 -53 51 -54 -1 0 -42 -10 -91 -23 l-89 -23
-66 33 c-36 18 -81 48 -100 67 l-33 35 43 57 c42 56 129 118 159 112 8 -1 20
-13 26 -27z m426 -207 c34 -33 83 -124 89 -168 3 -18 -87 -154 -102 -155 -4 0
-9 20 -11 44 -10 89 -120 266 -164 266 -27 0 -14 18 18 24 23 4 42 0 72 -18
65 -38 86 -66 93 -127 5 -39 8 -48 14 -34 16 40 8 69 -28 114 -21 25 -49 55
-62 67 -13 11 -21 26 -17 32 10 17 55 -3 98 -45z m-525 -64 c26 -11 49 -22 51
-24 7 -7 -133 -204 -146 -205 -36 -1 -223 96 -279 145 l-28 24 24 46 c14 26
35 54 48 62 30 20 96 12 135 -17 l29 -21 -7 25 c-3 15 1 34 11 50 l18 26 48
-45 c27 -25 70 -55 96 -66z m334 25 c55 -28 156 -216 147 -275 -4 -35 -50 -37
-96 -6 -74 49 -142 211 -114 271 13 30 22 32 63 10z"/>
<path d="M1655 2205 c-35 -34 -33 -80 4 -112 l29 -26 -39 -37 c-21 -20 -39
-44 -39 -52 0 -9 -11 -41 -25 -72 -16 -36 -23 -66 -19 -81 7 -27 44 -55 72
-55 70 0 167 201 123 254 -6 7 -7 17 -3 21 4 5 1 5 -6 1 -13 -8 -52 1 -52 12
0 4 13 13 28 20 76 33 54 152 -28 152 -12 0 -32 -11 -45 -25z m95 -36 c23 -42
-18 -81 -69 -64 -40 12 -38 79 2 94 26 10 52 -2 67 -30z m-19 -157 c21 -18 22
-21 10 -64 -18 -64 -66 -144 -90 -151 -25 -6 -61 19 -61 43 0 10 11 42 25 72
14 29 25 59 25 67 0 21 30 51 50 51 10 0 28 -8 41 -18z"/>
<path d="M824 1610 c-29 -11 -54 -49 -54 -79 0 -14 -9 -35 -21 -47 -12 -12
-18 -27 -15 -32 3 -5 40 -12 82 -16 74 -7 78 -6 105 20 16 15 29 32 29 38 0 5
12 22 26 37 29 31 25 49 -11 49 -14 0 -39 9 -57 20 -36 22 -51 23 -84 10z m56
-5 c0 -7 -81 -47 -86 -42 -8 8 48 47 67 47 11 0 19 -2 19 -5z m50 -35 c9 -16
1 -23 -52 -49 -76 -38 -98 -40 -98 -6 0 21 10 30 58 53 61 30 77 30 92 2z m54
-14 c-3 -8 -17 -22 -30 -31 -14 -9 -22 -20 -19 -25 3 -5 -4 -15 -15 -23 -11
-7 -17 -17 -12 -22 4 -4 -1 -5 -10 -2 -10 4 -18 2 -18 -3 0 -6 -12 -10 -27 -9
-24 0 -20 4 26 25 30 13 52 26 49 29 -3 3 -25 -4 -49 -14 -65 -29 -129 -38
-129 -18 0 10 6 13 18 10 25 -6 145 43 174 72 26 26 50 32 42 11z"/>
<path d="M1071 1532 c-4 -65 -90 -162 -163 -184 -21 -6 -36 -13 -34 -16 10
-10 84 23 123 54 46 38 87 112 80 146 l-4 23 -2 -23z"/>
<path d="M1899 1614 c45 -51 57 -92 47 -161 -8 -58 -11 -63 -49 -64 -26 0 -28
-2 -12 -8 31 -12 52 -2 70 36 29 61 5 160 -52 218 -44 43 -47 27 -4 -21z"/>
<path d="M1620 1391 l-35 -36 39 23 c33 19 44 21 69 12 16 -5 44 -10 61 -9 25
1 21 3 -21 13 -29 7 -58 18 -65 23 -10 7 -22 1 -48 -26z"/>
<path d="M1938 1146 c5 -67 -13 -103 -81 -173 -28 -29 -46 -53 -40 -53 15 0
103 93 122 128 17 31 21 126 6 141 -7 7 -9 -8 -7 -43z"/>
<path d="M1234 996 c-27 -25 -44 -45 -38 -46 16 0 100 77 93 84 -4 4 -28 -14
-55 -38z"/>
<path d="M1083 833 l-40 -48 -67 0 c-72 0 -56 -14 19 -17 32 -1 51 5 73 23 17
13 31 28 31 33 1 5 8 18 18 28 9 10 14 20 11 23 -2 3 -23 -16 -45 -42z"/>
<path d="M1460 424 c8 -1 157 -4 330 -6 173 -2 286 -1 250 3 -64 7 -609 10
-580 3z"/>
<path d="M1260 410 c-67 -8 -178 -34 -188 -45 -24 -23 97 -56 273 -74 112 -11
622 -12 730 0 121 12 177 21 172 26 -3 2 -79 -3 -168 -13 -298 -31 -877 -7
-966 40 l-27 14 54 16 c47 14 122 25 270 39 19 2 8 4 -25 4 -33 0 -89 -3 -125
-7z"/>
<path d="M2205 393 c50 -8 96 -21 104 -28 13 -13 10 -16 -20 -29 -19 -9 -26
-15 -16 -16 20 0 87 26 87 34 0 20 -147 57 -216 55 -16 -1 12 -8 61 -16z"/>
</g>
</svg>
