<?xml version="1.0" standalone="no"?>
<!DOCTYPE svg PUBLIC "-//W3C//DTD SVG 20010904//EN"
 "http://www.w3.org/TR/2001/REC-SVG-20010904/DTD/svg10.dtd">
<svg version="1.0" xmlns="http://www.w3.org/2000/svg"
 width="300.000000pt" height="200.000000pt" viewBox="0 0 300.000000 200.000000"
 preserveAspectRatio="xMidYMid meet">
<metadata>
Created by potrace 1.10, written by Peter Selinger 2001-2011
</metadata>
<g transform="translate(0.000000,200.000000) scale(0.100000,-0.100000)"
fill="#000000" stroke="none">
<path d="M0 1000 l0 -1000 1500 0 1500 0 0 1000 0 1000 -1500 0 -1500 0 0
-1000z m1830 6 l0 -825 -107 53 c-60 29 -157 76 -218 105 l-110 52 1 127 c2
174 -1 187 -42 207 -29 14 -46 35 -28 35 13 0 49 -25 65 -44 l17 -21 39 31
c39 31 83 103 83 137 0 26 -23 16 -25 -11 -2 -28 -43 -72 -67 -72 -10 0 -36 9
-58 20 -36 18 -39 19 -45 2 -3 -9 -12 -25 -19 -35 -12 -15 -17 -16 -42 -5 -16
7 -37 21 -47 31 -10 10 -22 15 -27 12 -6 -4 -10 -1 -10 4 0 8 -6 8 -17 2 -22
-12 -55 -24 -67 -25 -5 -1 -15 -19 -22 -41 l-12 -40 -1 51 c-1 36 3 51 12 51
6 -1 31 2 55 7 29 5 42 13 43 24 0 10 4 43 8 75 5 38 4 54 -3 47 -7 -7 -18 6
-33 38 -12 26 -23 53 -23 60 0 7 -4 11 -9 7 -5 -3 -13 0 -17 6 -5 9 0 10 15 6
21 -5 22 -3 19 41 l-3 47 -58 3 -57 3 22 -24 c13 -13 26 -22 30 -20 15 7 17
-36 3 -70 -8 -20 -15 -50 -15 -67 0 -29 -13 -40 -25 -21 -5 9 6 75 21 124 3
10 0 17 -9 17 -7 0 -24 11 -37 25 -18 19 -34 25 -67 25 -38 0 -45 -3 -54 -27
-11 -28 -8 -218 4 -229 3 -3 39 -8 81 -11 l76 -6 0 29 c0 22 5 30 20 31 16 1
18 -3 14 -26 -6 -27 -4 -28 21 -24 14 3 32 14 38 24 17 27 30 24 15 -3 -7 -13
-13 -27 -14 -33 0 -5 -2 -14 -2 -20 -1 -6 -53 -10 -132 -10 -117 0 -129 2
-124 17 2 9 -1 20 -7 24 -9 5 -10 2 -6 -9 3 -9 1 -19 -5 -23 -18 -12 -78 -22
-72 -13 3 5 -32 8 -77 7 -69 -1 -84 2 -95 17 -13 17 -21 127 -17 220 1 17 2
65 2 107 1 42 4 84 7 92 5 13 27 16 124 16 79 0 121 4 126 12 4 6 3 9 -2 5
-15 -9 -9 45 9 86 9 21 25 51 36 66 11 16 18 30 16 33 -3 3 5 4 18 3 12 -1 32
5 44 13 15 9 38 12 65 9 50 -5 118 -33 118 -47 0 -13 0 -13 -48 10 -119 58
-251 -27 -240 -156 l3 -44 -127 0 -128 0 0 -55 0 -55 105 0 c58 0 108 -1 113
-2 4 -2 8 16 10 40 2 33 7 42 22 42 19 0 30 -19 30 -50 0 -24 36 -31 154 -33
l86 -2 15 -32 c17 -36 21 -68 5 -43 -11 16 -11 16 -17 -20 -10 -67 6 -107 46
-112 14 -2 25 -7 25 -13 -1 -5 -5 -42 -8 -81 -6 -66 -5 -72 13 -77 17 -4 25 5
47 52 15 31 31 61 36 67 11 15 45 7 52 -13 6 -15 5 -15 -40 4 -6 2 -15 -8 -18
-24 -4 -15 -18 -45 -32 -65 -23 -36 -23 -38 -5 -48 31 -16 36 -13 68 49 l31
59 42 -28 c42 -28 43 -28 62 -10 12 11 17 24 13 31 -5 7 -4 10 2 6 14 -9 37
19 28 33 -3 6 -11 8 -16 5 -5 -4 -9 1 -9 9 0 9 -4 16 -10 16 -14 0 -12 27 3
33 7 4 6 6 -5 6 -9 1 -19 7 -21 14 -3 6 -6 3 -7 -8 -1 -20 -1 -20 -10 0 -14
32 -11 42 11 48 15 4 20 11 17 25 -3 10 -2 37 2 58 6 32 8 34 9 11 0 -16 5
-25 11 -22 6 3 7 -1 4 -9 -3 -9 -10 -13 -15 -10 -15 9 -10 -6 16 -43 13 -20
23 -38 21 -40 -2 -2 -15 1 -30 7 -51 19 -51 10 -1 -17 78 -41 125 -72 125 -83
0 -15 -9 -12 -57 20 -52 35 -57 37 -41 10 7 -11 22 -20 33 -21 19 0 19 -1 -3
-16 l-24 -17 23 -16 c18 -14 21 -23 15 -54 -4 -20 -11 -34 -16 -31 -6 4 -7 -1
-3 -11 4 -12 3 -15 -6 -10 -7 5 -10 2 -9 -6 2 -7 -3 -12 -9 -11 -7 2 -12 -1
-10 -5 1 -4 -9 -22 -24 -38 -17 -21 -32 -30 -47 -27 -22 3 -22 2 -22 -148 0
-114 3 -149 13 -148 16 3 48 -10 69 -28 11 -10 18 -11 23 -4 3 6 -1 11 -9 11
-9 0 -16 5 -16 10 0 13 -2 14 55 -16 45 -24 40 -28 -10 -8 -18 7 -18 6 -6 -9
7 -9 19 -17 26 -17 7 0 38 -13 69 -29 31 -17 56 -28 56 -26 0 3 21 -7 46 -20
26 -14 53 -25 60 -25 8 0 14 -4 14 -10 0 -5 5 -10 10 -10 14 0 13 1567 -1
1576 -5 3 -18 2 -27 -2 -9 -4 -19 -8 -22 -9 -3 -2 -15 -6 -27 -10 -13 -4 -20
-11 -17 -16 3 -5 -2 -6 -10 -3 -9 3 -16 1 -16 -4 0 -6 -10 -14 -22 -18 -13 -4
-34 -14 -47 -23 -13 -8 -33 -17 -44 -18 -23 -4 -126 -59 -146 -78 -19 -19 -19
-17 -20 -387 -1 -190 -5 -328 -10 -328 -5 0 -9 152 -9 364 l0 365 81 38 c45
21 143 68 217 105 74 37 136 67 138 67 1 1 2 -370 2 -823z m90 804 c0 -5 -10
-10 -22 -9 -22 0 -22 1 -3 9 11 5 21 9 23 9 1 1 2 -3 2 -9z m17 -1068 c-1
-185 -2 -33 -2 338 0 371 1 523 2 337 2 -185 2 -489 0 -675z m-137 231 c0
-405 -2 -734 -5 -731 -3 3 -5 327 -5 721 0 516 -3 718 -11 723 -8 4 -7 9 2 15
8 5 15 9 17 9 1 0 2 -331 2 -737z m-40 712 c0 -7 -58 -35 -72 -35 -7 1 3 9 22
20 35 19 50 24 50 15z m-133 -61 c-27 -14 -51 -23 -53 -21 -5 5 76 46 91 46 6
0 -12 -11 -38 -25z m133 -4 c0 -16 -2 -30 -4 -30 -2 0 -6 14 -8 30 -3 17 -1
30 4 30 4 0 8 -13 8 -30z m-51 5 c-9 -8 -79 -35 -79 -30 0 3 15 11 33 19 32
15 54 20 46 11z m-169 -40 c-14 -8 -29 -14 -35 -14 -5 0 1 6 15 14 14 8 30 14
35 14 6 0 -1 -6 -15 -14z m40 -16 c-104 -44 -94 -21 -100 -224 l-6 -180 1 185
0 184 65 28 c36 15 70 27 75 27 6 0 -10 -9 -35 -20z m-91 -2 c-28 -21 -59 -36
-59 -29 0 9 37 30 54 31 5 1 7 0 5 -2z m268 -384 c-1 -65 -3 -12 -3 117 0 129
2 182 3 118 2 -65 2 -171 0 -235z m-320 185 c-2 -29 -3 -6 -3 52 0 58 1 81 3
53 2 -29 2 -77 0 -105z m-372 121 c-51 -10 -92 -10 -50 1 17 4 44 8 60 8 25 0
24 -2 -10 -9z m-65 -29 c20 -6 21 -8 5 -8 -11 0 -31 4 -45 8 -20 6 -21 8 -5 8
11 0 31 -4 45 -8z m179 -22 c38 -61 31 -140 -17 -190 -28 -30 -56 -35 -97 -16
-36 16 -55 57 -55 118 0 44 5 56 29 81 24 24 38 29 78 29 39 0 51 -4 62 -22z
m-241 -55 c-10 -2 -26 -2 -35 0 -10 3 -2 5 17 5 19 0 27 -2 18 -5z m51 -65 c2
-42 -16 -33 -24 12 -8 46 5 79 16 40 4 -14 7 -37 8 -52z m-36 -35 c-7 -2 -21
-2 -30 0 -10 3 -4 5 12 5 17 0 24 -2 18 -5z m-115 -52 c2 -7 -29 -11 -97 -11
-88 0 -112 5 -97 21 10 9 191 0 194 -10z m130 -11 c22 -7 23 -8 6 -9 -11 -1
-29 6 -40 15 -10 8 -13 12 -6 9 8 -4 26 -11 40 -15z m268 -105 c-5 -20 -3 -25
13 -25 26 0 51 -10 51 -21 0 -5 -12 -7 -27 -4 l-28 5 28 -11 c15 -6 27 -15 27
-20 0 -5 -12 -6 -27 -3 l-28 7 25 -21 c14 -11 22 -24 18 -28 -4 -4 -15 -1 -24
7 -15 12 -16 11 -9 -11 8 -29 34 -52 48 -43 6 3 7 1 3 -5 -11 -18 -25 -14 -52
15 -18 20 -23 34 -19 51 10 39 -4 82 -26 82 -23 0 -24 8 -2 32 23 25 36 22 29
-7z m326 -87 c-2 -5 1 -8 6 -8 5 0 21 -18 36 -40 34 -52 20 -51 -30 3 -72 77
-86 95 -80 105 7 11 74 -49 68 -60z m190 -103 c2 -72 0 -111 -6 -105 -6 6 -24
11 -40 11 -29 2 -29 2 -5 6 25 4 27 9 34 69 7 72 0 124 -19 124 -24 0 -45 -35
-49 -80 -3 -39 -4 -37 -5 17 -2 66 1 71 55 72 l32 1 3 -115z m-27 56 c3 -5 1
-12 -5 -16 -5 -3 -10 -18 -10 -32 0 -35 -6 -27 -14 20 -5 29 -4 37 8 37 8 0
17 -4 21 -9z m-712 -21 c17 -20 16 -20 -51 -18 l-67 1 55 7 c52 6 53 7 15 10
l-40 3 35 7 c19 4 35 8 35 9 0 0 8 -8 18 -19z m132 10 c-3 -5 -18 -10 -33 -10
-21 0 -24 2 -12 10 20 13 53 13 45 0z m-5 -30 c0 -5 -4 -10 -10 -10 -5 0 -10
5 -10 10 0 6 5 10 10 10 6 0 10 -4 10 -10z m559 -55 c12 -13 -12 -35 -38 -35
-31 0 -46 21 -29 38 9 9 56 7 67 -3z m-785 -91 c2 -16 4 -37 5 -47 0 -10 5
-16 10 -13 5 3 24 3 42 -1 29 -5 30 -7 14 -15 -12 -5 -3 -6 24 -2 31 4 41 3
37 -5 -5 -7 1 -11 14 -11 18 0 20 -5 18 -41 -1 -22 -5 -42 -8 -44 -4 -2 -7
-20 -8 -40 -1 -26 2 -34 11 -29 7 4 8 3 4 -1 -4 -5 -14 -10 -23 -11 -11 -2
-13 5 -8 32 6 34 6 34 -32 34 -22 1 -56 7 -76 14 -42 15 -48 12 -48 -20 0 -17
10 -25 47 -38 26 -9 57 -16 70 -16 27 0 27 5 7 -54 -16 -46 -16 -48 5 -70 27
-29 27 -36 -3 -36 -36 0 -89 48 -83 74 20 84 20 83 -12 94 -28 10 -29 9 -35
-23 -4 -19 -15 -44 -26 -57 -25 -30 -25 -21 1 38 11 27 18 57 15 67 -2 11 0
31 6 46 6 14 14 42 18 61 l8 35 1 -38 c1 -42 18 -53 96 -64 39 -5 43 -3 49 20
3 14 9 32 12 41 5 12 0 16 -23 16 -16 0 -52 7 -80 15 -54 16 -60 25 -70 105
-3 25 -1 32 7 24 6 -6 12 -24 14 -40z m690 -13 c6 -9 -44 -45 -104 -76 -40
-20 -34 -13 35 44 52 43 60 47 69 32z m27 -15 c-6 -7 -8 -16 -4 -19 3 -4 0 -7
-7 -7 -7 0 -10 -3 -7 -7 4 -3 0 -15 -10 -25 -9 -10 -12 -18 -7 -18 5 0 2 -5
-6 -10 -8 -5 -15 -13 -15 -17 0 -5 -6 -15 -13 -23 -75 -88 -82 -103 -83 -180
l-2 -75 -7 91 c-3 49 -10 95 -13 101 -4 7 -3 14 2 17 12 8 11 55 -1 62 -6 4
-15 0 -20 -7 -8 -12 -9 -11 -6 1 4 12 67 34 75 26 2 -2 -6 -29 -17 -61 -11
-32 -20 -61 -20 -64 0 -3 31 43 69 101 38 58 74 108 80 112 6 4 8 12 5 18 -4
7 -2 8 5 4 8 -6 9 -12 2 -20z m126 -368 c-1 -40 -3 -8 -3 72 0 80 2 112 3 73
2 -40 2 -106 0 -145z m-792 -34 c37 -9 90 0 90 15 0 11 15 14 70 12 90 -3 99
-11 13 -11 -64 0 -66 -1 -77 -30 -9 -27 -14 -30 -51 -30 -63 0 -170 63 -170
100 0 16 7 14 51 -16 28 -19 61 -37 74 -40z m1382 6 c24 -7 41 -16 38 -20 -2
-4 -30 1 -61 12 -48 16 -80 18 -221 16 l-164 -3 3 -98 c2 -53 0 -97 -4 -97 -5
0 -8 48 -8 108 l0 107 187 -6 c105 -3 207 -12 230 -19z m-1649 9 c-70 -4 -135
-12 -145 -18 -17 -10 -17 -10 2 -11 84 -5 161 -12 165 -17 3 -3 -39 -3 -92 1
-103 7 -155 19 -128 30 31 13 138 24 230 23 94 0 93 0 -32 -8z m590 -6 c-10
-2 -26 -2 -35 0 -10 3 -2 5 17 5 19 0 27 -2 18 -5z m72 -12 c0 -11 -88 -26
-97 -17 -4 3 8 6 26 6 19 0 30 4 26 10 -4 6 5 10 19 10 14 0 26 -4 26 -9z
m1090 -27 l35 -14 -35 6 c-19 3 -39 10 -44 15 -14 13 2 10 44 -7z m-1320 2 c0
-3 -4 -8 -10 -11 -5 -3 -10 -1 -10 4 0 6 5 11 10 11 6 0 10 -2 10 -4z m103 -3
c-13 -2 -35 -2 -50 0 -16 2 -5 4 22 4 28 0 40 -2 28 -4z m-365 -10 c-21 -2
-55 -2 -75 0 -21 2 -4 4 37 4 41 0 58 -2 38 -4z m767 -3 c3 -6 -1 -7 -9 -4
-18 7 -21 14 -7 14 6 0 13 -4 16 -10z m915 -20 c30 -10 46 -19 35 -19 -18 0
-107 36 -95 38 3 1 30 -8 60 -19z m-790 -42 c0 -5 -9 -4 -20 2 -11 6 -20 12
-20 14 0 2 9 2 20 -1 11 -3 20 -9 20 -15z m884 16 c9 -3 16 -11 16 -16 0 -6
-6 -5 -15 2 -8 6 -19 9 -25 5 -5 -3 -10 -1 -10 4 0 12 11 14 34 5z m213 -70
c92 -19 32 -23 -394 -23 -303 -1 -463 2 -463 9 0 7 140 8 410 5 276 -4 410 -2
410 5 0 5 -4 11 -10 11 -31 4 -129 39 -135 49 -2 4 32 -6 78 -22 45 -16 92
-31 104 -34z m-877 26 c0 -5 -2 -10 -4 -10 -3 0 -8 5 -11 10 -3 6 -1 10 4 10
6 0 11 -4 11 -10z m-72 -57 c-10 -2 -28 -2 -40 0 -13 2 -5 4 17 4 22 1 32 -1
23 -4z"/>
<path d="M880 1210 c0 -19 5 -25 24 -27 19 -3 19 -3 1 17 -20 23 -25 24 -25
10z"/>
<path d="M630 1026 l0 -144 98 -7 c53 -4 104 -7 112 -8 13 -2 15 22 18 151 l3
152 -116 0 -115 0 0 -144z m161 48 c16 -14 33 -107 18 -98 -4 2 -14 -5 -24
-16 -28 -31 -78 -26 -109 11 -14 17 -26 38 -25 47 0 10 7 3 15 -15 14 -33 40
-53 69 -53 23 0 65 45 65 70 0 12 -11 32 -25 45 -13 14 -33 25 -45 25 -11 0
-32 -11 -45 -25 -14 -13 -25 -20 -25 -15 0 5 12 18 27 30 31 24 74 22 104 -6z
m-31 -24 c15 -28 3 -59 -25 -66 -40 -10 -69 24 -54 64 11 30 63 31 79 2z"/>
<path d="M701 1046 c-14 -17 -7 -36 14 -36 22 0 29 20 13 36 -13 13 -16 13
-27 0z"/>
<path d="M1060 1079 c0 -5 5 -7 10 -4 6 3 10 8 10 11 0 2 -4 4 -10 4 -5 0 -10
-5 -10 -11z"/>
<path d="M1191 844 c0 -11 3 -14 6 -6 3 7 2 16 -1 19 -3 4 -6 -2 -5 -13z"/>
<path d="M1366 843 c-6 -14 -5 -15 5 -6 7 7 10 15 7 18 -3 3 -9 -2 -12 -12z"/>
<path d="M1386 833 c-6 -14 -5 -15 5 -6 7 7 10 15 7 18 -3 3 -9 -2 -12 -12z"/>
<path d="M1407 825 c-4 -9 -3 -13 3 -10 6 3 10 1 10 -5 0 -7 5 -10 11 -8 11 4
14 19 3 17 -4 0 -10 5 -14 11 -5 8 -9 7 -13 -5z"/>
<path d="M1080 1433 c-42 -17 -60 -74 -40 -124 7 -16 28 -38 47 -50 l34 -21
29 27 c16 16 27 32 24 36 -2 4 0 10 6 14 18 11 11 81 -11 106 l-21 24 7 -25
c16 -55 16 -96 2 -123 -15 -28 -18 -28 -30 5 -4 11 -2 17 6 15 12 -2 15 44 5
93 -5 25 -29 35 -58 23z"/>
<path d="M988 513 c7 -3 16 -2 19 1 4 3 -2 6 -13 5 -11 0 -14 -3 -6 -6z"/>
<path d="M968 493 c6 -2 18 -2 25 0 6 3 1 5 -13 5 -14 0 -19 -2 -12 -5z"/>
<path d="M965 470 c3 -5 11 -10 16 -10 6 0 7 5 4 10 -3 6 -11 10 -16 10 -6 0
-7 -4 -4 -10z"/>
<path d="M958 443 c6 -2 18 -2 25 0 6 3 1 5 -13 5 -14 0 -19 -2 -12 -5z"/>
</g>
</svg>
