<?xml version="1.0" standalone="no"?>
<!DOCTYPE svg PUBLIC "-//W3C//DTD SVG 20010904//EN"
 "http://www.w3.org/TR/2001/REC-SVG-20010904/DTD/svg10.dtd">
<svg version="1.0" xmlns="http://www.w3.org/2000/svg"
 width="300.000000pt" height="300.000000pt" viewBox="0 0 300.000000 300.000000"
 preserveAspectRatio="xMidYMid meet">
<metadata>
Created by potrace 1.10, written by Peter Selinger 2001-2011
</metadata>
<g transform="translate(0.000000,300.000000) scale(0.100000,-0.100000)"
fill="#000000" stroke="none">
<path d="M1301 2654 c-380 -102 -518 -568 -253 -855 80 -87 167 -135 295 -164
21 -4 27 -10 23 -22 -8 -20 11 -43 35 -43 18 0 19 -10 19 -132 l0 -132 -30
-25 c-35 -30 -50 -91 -50 -202 0 -38 -4 -69 -10 -69 -21 0 -43 -54 -71 -175
-33 -142 -34 -157 -17 -188 7 -13 13 -61 13 -112 2 -141 46 -206 116 -169 33
16 52 54 71 134 9 38 16 50 30 50 16 0 18 -9 18 -84 0 -98 20 -136 71 -136 45
0 73 36 105 133 23 72 32 87 49 87 48 1 77 57 83 166 l4 80 57 12 c31 7 65 12
76 12 90 -4 88 -4 122 35 41 48 50 78 31 107 -13 19 -13 27 0 62 41 120 -32
284 -155 346 -62 32 -180 40 -237 16 -27 -11 -43 -13 -56 -6 -44 24 -98 -6
-134 -73 -17 -30 -17 -37 -5 -63 12 -23 13 -37 3 -69 l-11 -40 -12 53 c-6 29
-11 59 -11 66 0 8 -7 19 -15 26 -12 10 -15 40 -15 149 0 132 1 137 23 146 13
6 22 18 21 31 0 18 9 24 55 34 188 41 346 194 396 381 31 113 15 252 -41 368
-37 75 -152 189 -226 224 -120 57 -254 72 -367 41z m283 -34 c227 -71 376
-313 336 -548 -45 -267 -305 -458 -562 -414 -251 43 -420 244 -420 497 0 141
46 249 149 350 130 128 315 171 497 115z m-119 -1010 c0 -10 -12 -16 -37 -18
-33 -3 -38 0 -38 18 0 18 5 21 38 18 25 -2 37 -8 37 -18z m453 -261 c95 -47
144 -119 157 -229 l6 -55 -24 58 c-14 31 -41 77 -61 102 -62 75 -160 145 -203
145 -10 0 6 -11 35 -25 73 -34 175 -137 209 -211 28 -61 36 -135 16 -155 -9
-9 -10 -2 -6 27 8 65 -29 145 -104 224 -79 85 -145 120 -222 120 -66 0 -59 12
12 21 101 12 123 10 185 -22z m-293 12 c3 -5 -8 -19 -24 -30 -16 -12 -40 -37
-52 -57 -14 -24 -24 -32 -29 -24 -13 21 1 48 41 85 40 36 54 42 64 26z m191
-76 c91 -46 167 -133 198 -228 19 -55 12 -81 -13 -49 -15 19 -35 26 -72 23 -9
0 -28 -13 -43 -28 -15 -15 -34 -28 -42 -29 -29 -4 -43 -13 -53 -33 -9 -16 -7
-25 14 -45 32 -32 42 -32 57 -1 6 13 15 22 20 19 4 -3 6 -10 2 -15 -3 -5 -2
-9 3 -8 4 1 23 1 41 0 29 -1 32 -3 19 -16 -18 -17 -157 -58 -157 -45 0 5 -9
12 -21 15 -47 15 -199 144 -199 169 0 15 -40 79 -46 74 -2 -3 3 -26 12 -52 22
-65 101 -148 176 -185 45 -23 55 -31 37 -31 -38 0 -124 47 -158 86 -70 79
-100 199 -66 264 9 17 18 30 21 30 3 0 2 -6 -1 -12 -4 -7 13 9 37 36 80 92
141 108 234 61z m-366 -55 c0 -15 -9 -39 -21 -54 -11 -14 -16 -26 -10 -26 21
0 10 -18 -14 -24 -38 -10 -43 -2 -34 61 6 41 14 63 30 76 27 22 49 7 49 -33z
m88 -292 c31 -50 80 -91 136 -114 l48 -19 -7 -50 c-3 -27 -7 -50 -8 -51 -1 -1
-14 0 -29 3 -24 4 -26 9 -21 37 7 47 -10 58 -127 86 l-102 24 -19 -23 c-11
-13 -19 -29 -19 -36 0 -10 -7 -11 -35 -2 -19 6 -35 14 -35 18 0 4 9 38 21 75
12 40 22 99 23 143 1 50 5 76 14 79 10 3 10 -2 1 -21 -13 -29 2 -67 28 -67 15
0 15 2 0 18 -23 26 -21 37 11 58 54 38 55 37 77 -45 11 -42 31 -93 43 -113z
m446 49 c9 -15 6 -23 -18 -43 -34 -30 -70 -28 -74 3 -4 28 33 65 60 61 12 -2
26 -11 32 -21z m-664 -95 c-12 -43 -29 -84 -37 -92 -13 -13 -15 -13 -10 5 4
11 14 52 23 90 18 73 35 107 42 85 3 -7 -6 -46 -18 -88z m751 20 c-12 -23 -78
-82 -91 -82 -21 0 -18 19 5 34 14 9 37 35 52 57 21 32 28 37 35 25 5 -9 5 -23
-1 -34z m-215 27 c10 -17 -23 -46 -37 -32 -7 7 -9 19 -6 27 7 18 33 21 43 5z
m-394 -130 c-16 -64 -15 -80 7 -86 17 -4 20 -10 15 -32 -4 -14 -8 -29 -11 -33
-4 -8 -63 8 -75 20 -9 9 8 105 24 135 11 21 45 18 40 -4z m100 -8 c74 -16 81
-25 68 -89 -17 -77 -27 -87 -86 -76 l-49 10 3 43 c3 36 0 43 -18 48 -15 4 -19
11 -14 27 3 11 8 29 11 39 3 10 10 16 17 14 6 -3 37 -10 68 -16z m218 -60 c0
-57 0 -58 -26 -53 -24 4 -26 8 -20 41 3 20 6 44 6 54 0 10 8 17 20 17 18 0 20
-7 20 -59z m-439 37 c49 -14 55 -43 7 -33 -45 10 -70 24 -63 36 8 11 10 11 56
-3z m-65 -55 c-3 -21 -6 -47 -6 -57 0 -15 -3 -17 -11 -9 -14 14 -3 103 13 103
7 0 8 -14 4 -37z m63 6 c22 -8 31 -17 31 -32 0 -38 14 -47 119 -72 106 -26
132 -24 145 10 4 12 12 14 28 9 13 -3 25 -8 27 -10 1 -1 -7 -37 -19 -78 -22
-73 -24 -75 -49 -68 -14 4 -45 7 -68 7 -40 -1 -43 1 -43 27 0 21 5 28 18 28
11 0 27 10 38 22 10 13 12 18 4 12 -25 -18 -62 -23 -110 -14 -47 9 -64 5 -41
-9 17 -11 9 -47 -10 -42 -8 1 -40 5 -71 8 l-58 6 0 40 c0 38 19 167 25 167 1
0 16 -5 34 -11z m379 -54 c3 -3 1 -10 -4 -15 -7 -7 -21 -7 -42 1 -31 11 -38
19 -26 31 6 6 63 -7 72 -17z m52 -22 c0 -27 -39 -85 -53 -80 -13 5 -12 28 5
70 12 31 48 38 48 10z m-385 -152 c33 -8 35 -22 8 -79 -34 -72 -99 -46 -110
46 l-6 51 39 -5 c22 -4 53 -9 69 -13z m247 -38 c11 -6 -19 -74 -41 -97 -37
-37 -81 4 -81 74 0 19 6 30 18 33 17 5 91 -2 104 -10z"/>
<path d="M1225 2552 c-28 -6 -55 -32 -55 -54 0 -14 8 -18 33 -18 36 0 77 24
77 45 0 18 -29 33 -55 27z m28 -42 c-10 -12 -30 -20 -47 -20 -28 0 -29 0 -11
20 10 11 31 20 46 20 28 0 28 -1 12 -20z"/>
<path d="M1417 2542 c-24 -26 -22 -69 4 -82 11 -7 23 -9 26 -6 3 3 -2 8 -11
12 -23 9 -20 51 4 64 49 26 84 -42 38 -74 -18 -13 -19 -16 -6 -16 44 0 65 72
30 103 -24 22 -65 21 -85 -1z"/>
<path d="M1747 2389 c-21 -12 -22 -58 -3 -85 13 -17 14 -15 9 24 -6 44 9 56
35 30 16 -16 15 -65 0 -72 -7 -3 -4 -5 7 -3 15 2 21 11 23 35 5 49 -36 90 -71
71z"/>
<path d="M1441 2294 c-21 -27 -26 -50 -15 -78 10 -27 24 -17 18 13 -7 33 23
71 56 71 25 0 60 -34 60 -58 0 -25 -39 -65 -56 -58 -42 17 -49 19 -39 8 6 -6
22 -14 37 -17 21 -5 33 -1 52 19 50 49 17 126 -54 126 -30 0 -43 -6 -59 -26z"/>
<path d="M1098 2243 c-24 -15 -41 -41 -20 -31 4 2 19 10 34 17 64 32 138 -16
138 -91 0 -76 -81 -122 -149 -84 -40 22 -51 53 -35 99 17 48 17 54 3 40 -6 -6
-14 -28 -19 -49 -15 -68 31 -124 103 -124 111 0 166 126 89 203 -38 37 -104
46 -144 20z"/>
<path d="M1872 2178 c-6 -13 -23 -43 -38 -68 -15 -25 -21 -39 -13 -33 18 15
73 112 67 119 -3 2 -10 -6 -16 -18z"/>
<path d="M1721 2061 c-14 -4 -26 -12 -29 -19 -3 -9 7 -7 31 4 33 16 37 16 61
0 14 -9 28 -27 32 -40 12 -49 -49 -116 -106 -116 -50 0 -77 71 -44 118 23 33
10 38 -15 6 -49 -62 -10 -144 68 -144 67 0 132 75 117 135 -14 54 -53 74 -115
56z"/>
<path d="M1010 1970 c45 -40 189 -110 226 -110 20 1 6 8 -45 25 -40 13 -105
44 -145 70 -55 36 -63 39 -36 15z"/>
<path d="M1345 1966 c-57 -25 -71 -95 -29 -145 34 -41 91 -57 138 -37 83 35
73 136 -18 181 -35 18 -52 18 -91 1z m119 -38 c33 -27 37 -35 32 -61 -10 -48
-33 -67 -83 -67 -36 0 -50 6 -74 29 -36 36 -37 73 -4 106 35 36 81 33 129 -7z"/>
<path d="M1669 1235 c-56 -20 -102 -46 -95 -53 10 -9 36 -11 36 -3 0 4 27 15
61 25 63 19 159 17 199 -4 13 -7 21 -7 25 0 4 6 -13 19 -37 30 -50 23 -135 25
-189 5z"/>
<path d="M1546 734 c-10 -27 -7 -43 13 -54 36 -19 68 11 56 51 -8 24 -60 26
-69 3z"/>
</g>
</svg>
