<?xml version="1.0" standalone="no"?>
<!DOCTYPE svg PUBLIC "-//W3C//DTD SVG 20010904//EN"
 "http://www.w3.org/TR/2001/REC-SVG-20010904/DTD/svg10.dtd">
<svg version="1.0" xmlns="http://www.w3.org/2000/svg"
 width="300.000000pt" height="300.000000pt" viewBox="0 0 300.000000 300.000000"
 preserveAspectRatio="xMidYMid meet">
<metadata>
Created by potrace 1.10, written by Peter Selinger 2001-2011
</metadata>
<g transform="translate(0.000000,300.000000) scale(0.100000,-0.100000)"
fill="#000000" stroke="none">
<path d="M1209 2647 c-119 -41 -193 -108 -246 -223 -24 -52 -28 -71 -27 -154
0 -98 26 -192 59 -220 8 -7 15 -17 15 -22 0 -28 -317 183 -388 258 -13 13 -29
24 -36 24 -39 0 -54 -83 -23 -118 17 -18 16 -21 -22 -59 -44 -43 -45 -63 -9
-115 10 -14 18 -30 18 -35 0 -21 38 -43 97 -56 45 -11 75 -27 119 -62 68 -56
185 -114 244 -122 45 -6 54 -29 20 -51 -11 -7 -20 -23 -20 -36 0 -19 -7 -26
-31 -31 -44 -10 -105 -68 -125 -120 -22 -58 -15 -134 18 -207 l26 -57 -34 -20
c-42 -25 -59 -63 -45 -103 10 -28 7 -33 -50 -86 -150 -139 -241 -331 -256
-539 -5 -68 -3 -85 7 -81 9 3 14 28 17 73 10 197 94 378 240 521 l64 62 97 -1
c140 -1 222 39 222 109 0 28 4 33 33 40 45 10 236 7 272 -5 25 -8 18 -9 -44
-10 -54 -1 -87 -7 -118 -22 -42 -20 -83 -65 -83 -90 0 -8 8 -2 17 11 36 53 92
78 173 79 68 1 97 -6 104 -26 4 -11 2 -13 -9 -9 -8 3 -15 1 -15 -4 0 -6 7 -10
16 -10 8 0 21 -15 29 -34 8 -18 30 -47 50 -65 41 -36 42 -64 3 -101 -71 -66
-234 -36 -288 52 -27 45 -25 80 7 119 15 18 21 30 13 27 -8 -2 -25 -20 -38
-39 -83 -122 129 -270 285 -200 40 19 73 61 73 95 0 23 40 7 41 -18 1 -14 3
-16 6 -5 3 11 20 18 55 22 28 4 62 14 76 23 l26 17 63 -68 c111 -119 193 -322
193 -477 0 -56 3 -68 16 -68 15 0 16 10 10 84 -16 192 -88 360 -218 501 -31
34 -48 62 -48 78 0 15 -13 38 -31 56 l-30 31 65 254 66 255 46 46 c91 91 122
219 68 276 l-27 28 28 110 27 111 32 -27 c69 -58 155 -76 251 -53 112 28 135
30 181 14 25 -8 48 -13 51 -11 2 3 17 91 32 197 19 134 24 193 17 198 -25 15
-122 4 -179 -22 -86 -39 -116 -35 -209 26 -43 29 -81 61 -84 71 -4 13 -14 17
-32 15 -29 -3 -20 26 -177 -595 -5 -20 -12 -23 -49 -23 -61 0 -79 -19 -74 -82
l3 -48 -39 0 c-21 0 -53 9 -70 19 -17 11 -50 24 -74 31 -51 13 -48 25 8 33 56
7 88 31 111 80 24 54 24 101 -1 156 -11 23 -25 72 -30 108 -21 129 -116 256
-233 309 -88 39 -205 44 -298 11z m274 -27 c111 -42 217 -177 232 -297 l7 -50
-30 5 c-25 3 -31 9 -36 40 -25 150 -188 297 -344 310 -37 3 -50 8 -40 14 21
15 148 2 211 -22z m657 -6 c0 -16 -141 -575 -147 -583 -2 -2 -6 -2 -9 2 -8 8
138 597 148 597 5 0 8 -7 8 -16z m-765 -21 c133 -46 241 -167 261 -291 4 -26
3 -42 -3 -42 -6 0 -13 18 -17 41 -16 102 -100 205 -211 260 -51 25 -76 31
-132 32 -73 1 -131 -14 -175 -44 -29 -21 -43 -24 -33 -9 11 18 97 64 134 71
45 8 123 1 176 -18z m856 -50 c98 -70 132 -74 244 -28 48 19 145 35 145 22 0
-1 -11 -76 -25 -167 -14 -91 -25 -168 -25 -172 0 -4 -14 -2 -31 4 -34 12 -90
7 -196 -16 -99 -22 -157 -9 -218 47 l-45 42 31 120 c16 66 35 137 40 158 11
41 9 42 80 -10z m-926 -17 c28 -7 59 -17 70 -21 16 -7 18 -6 8 6 -27 28 -11
29 38 3 55 -31 118 -99 141 -154 21 -50 31 -110 18 -110 -5 0 -10 8 -10 17 0
27 -41 63 -72 63 -58 0 -104 -90 -66 -128 10 -10 9 -18 -4 -40 -11 -18 -13
-34 -7 -49 16 -44 79 -18 79 33 0 13 2 24 4 24 2 0 11 3 20 6 13 5 16 -2 16
-36 0 -43 -17 -70 -45 -70 -12 0 -15 -6 -10 -20 5 -15 -3 -25 -32 -43 -82 -52
-194 -64 -288 -32 -26 8 -50 14 -52 11 -3 -2 6 -8 19 -12 22 -7 22 -7 3 -14
-16 -5 -9 -11 34 -25 40 -13 74 -16 135 -13 94 5 158 33 219 94 25 25 37 32
37 21 0 -22 -54 -70 -115 -104 -41 -22 -66 -28 -137 -31 -77 -4 -92 -2 -143
22 -31 14 -54 30 -50 36 3 5 2 10 -3 10 -13 0 -92 63 -92 74 0 5 10 1 23 -10
47 -42 60 -46 22 -8 -66 66 -116 217 -66 200 14 -5 14 -5 1 7 -15 12 -18 18
-26 71 -5 29 -4 30 9 13 15 -18 15 -18 21 0 3 10 8 35 12 56 8 48 54 111 96
133 66 35 121 40 193 20z m234 -248 c14 -25 14 -29 -5 -55 -26 -35 -50 -40
-75 -17 -25 22 -24 59 2 85 26 26 59 21 78 -13z m-928 -15 c23 -28 251 -194
296 -216 41 -20 43 -23 43 -67 0 -56 -24 -143 -45 -160 -17 -14 -60 10 -145
80 -30 25 -63 41 -98 49 -107 23 -118 46 -42 93 28 17 50 36 50 43 0 7 -22 41
-50 75 -34 42 -50 72 -50 91 0 33 20 39 41 12z m1114 -23 c3 -6 -4 -10 -17
-10 -35 0 -68 -27 -89 -74 -23 -50 -24 -88 -4 -126 14 -27 14 -29 0 -24 -23 9
-45 58 -45 99 0 43 31 108 62 129 25 18 83 21 93 6z m22 -42 c30 -38 18 -115
-25 -160 -29 -32 -53 -35 -76 -12 -18 17 -21 79 -7 117 21 54 84 86 108 55z
m-270 -54 c3 -8 -1 -22 -9 -30 -13 -13 -16 -13 -28 0 -10 13 -10 19 0 31 16
19 29 19 37 -1z m-851 -43 c-4 -6 -19 -11 -34 -11 -20 0 -23 -3 -14 -12 10
-10 17 -10 33 0 40 25 29 5 -13 -23 -39 -26 -42 -27 -55 -9 -21 29 -15 51 20
78 31 25 32 25 51 7 10 -11 15 -24 12 -30z m405 -116 c148 -108 190 -125 299
-125 72 0 154 20 212 52 l37 21 53 -21 c29 -12 68 -25 86 -28 28 -6 33 -10 28
-28 -17 -60 -18 -135 -3 -166 l16 -32 -41 7 c-23 4 -58 13 -78 20 -33 11 -35
15 -43 73 -5 34 -13 62 -18 62 -11 0 -11 -47 0 -115 6 -35 5 -52 -3 -58 -6 -4
-45 -6 -86 -5 -74 3 -75 3 -78 31 -2 15 -13 34 -25 41 -25 16 -240 42 -280 34
-15 -3 -27 -5 -27 -4 0 0 9 25 20 54 15 38 17 53 8 50 -7 -3 -20 -23 -28 -46
-16 -47 -21 -48 -101 -26 l-58 16 20 38 c21 40 44 155 34 170 -12 19 22 10 56
-15z m569 4 c0 -15 -89 -70 -147 -90 -70 -24 -94 -24 -32 0 53 21 138 77 146
96 5 14 33 9 33 -6z m296 -1 c-8 -13 -18 -41 -22 -63 l-8 -40 -7 35 c-12 53 4
89 39 90 10 0 9 -5 -2 -22z m129 -8 c25 -26 27 -34 22 -79 -11 -91 -51 -129
-117 -110 -39 12 -40 14 -40 56 0 74 19 132 49 148 38 21 54 18 86 -15z m-164
-143 c3 -21 10 -42 16 -48 12 -12 -11 -109 -29 -121 -25 -15 -58 -8 -74 17
-13 21 -16 41 -11 100 3 41 8 79 12 85 4 6 23 10 43 8 34 -3 37 -6 43 -41z
m65 -84 c-3 -10 -34 -135 -70 -278 -71 -283 -80 -313 -89 -299 -4 8 118 525
138 582 7 19 27 14 21 -5z m-789 -72 c-5 -40 -2 -55 13 -74 15 -18 18 -34 14
-56 -6 -30 -8 -31 -43 -25 -53 9 -63 27 -55 99 10 86 19 105 50 105 26 0 27
-1 21 -49z m163 29 c24 -7 25 -9 23 -89 -1 -47 -7 -88 -13 -97 -13 -14 -67
-18 -107 -8 -19 5 -23 13 -23 47 0 22 -7 48 -15 57 -11 12 -13 29 -9 63 l7 47
56 -7 c31 -3 67 -9 81 -13z m78 -12 c14 -14 16 -58 3 -58 -17 0 -22 -39 -10
-74 14 -40 1 -66 -33 -66 -16 0 -17 3 -8 20 6 11 12 58 13 105 2 84 9 99 35
73z m-326 -48 c-2 -16 -8 -27 -13 -24 -11 6 -12 38 -2 47 14 14 19 6 15 -23z
m685 -51 c-6 -47 -31 -89 -52 -89 -18 0 -35 39 -35 80 0 16 -5 30 -12 32 -29
10 5 23 52 19 l52 -3 -5 -39z m-117 -1 c0 -29 -40 -42 -127 -42 -89 1 -116 13
-111 48 3 20 8 21 98 18 52 -1 102 2 110 7 16 11 30 -3 30 -31z m226 20 c-7
-26 -80 -316 -91 -363 -6 -28 -10 -23 -46 69 -22 54 -39 99 -37 100 2 1 15 7
30 14 39 16 59 53 71 132 l11 70 34 0 c31 0 34 -2 28 -22z m-805 -47 c11 -54
25 -60 169 -77 147 -17 175 -13 186 30 5 22 8 23 42 14 35 -10 120 -6 152 6
12 5 22 -17 49 -100 18 -58 31 -108 28 -111 -11 -10 -121 -33 -161 -33 -31 0
-47 8 -88 45 -73 65 -186 94 -253 63 -23 -10 -29 -8 -73 36 -52 53 -100 81
-155 91 -32 6 -36 9 -25 23 16 19 88 53 108 49 8 -1 17 -17 21 -36z m697 -62
c-12 -34 -51 -64 -73 -55 -26 9 -18 36 11 36 15 0 35 10 47 25 28 31 28 31 15
-6z m-732 -29 c54 -30 127 -107 118 -122 -3 -5 0 -49 7 -97 11 -80 11 -92 -4
-115 -32 -49 -213 -77 -265 -40 -28 19 -28 57 0 84 24 23 27 23 119 20 39 -1
70 3 73 9 5 7 -12 11 -52 11 -66 0 -81 10 -106 72 -28 67 -37 126 -26 169 10
37 13 39 48 39 23 0 57 -12 88 -30z m340 -116 c45 -21 124 -100 124 -124 0 -4
-19 -4 -42 1 -55 10 -171 10 -225 0 -40 -8 -41 -7 -47 22 -3 16 -6 49 -6 73 0
40 2 44 33 53 44 13 102 4 163 -25z m391 -198 c-3 -8 -27 -21 -54 -29 l-48
-15 38 -1 c22 -1 52 7 69 17 l29 17 35 -37 c42 -47 43 -63 2 -88 -46 -28 -130
-27 -183 3 -42 24 -43 26 -102 152 -20 44 -38 83 -40 86 -2 3 30 9 71 12 41 3
87 12 102 20 l28 15 29 -69 c16 -38 27 -76 24 -83z"/>
<path d="M2344 2429 c-23 -11 -50 -29 -59 -39 -12 -13 -25 -17 -45 -14 -35 8
-47 -10 -29 -44 11 -20 11 -26 2 -29 -20 -7 -15 -27 11 -52 16 -16 26 -19 31
-11 5 8 14 5 31 -11 19 -18 26 -20 39 -9 8 7 15 21 15 31 0 10 12 25 28 33 55
29 112 106 112 152 0 22 -87 18 -136 -7z m36 -14 c0 -9 12 -28 26 -42 l27 -27
-29 -23 c-50 -41 -125 -76 -137 -64 -8 8 -5 16 11 27 12 8 22 19 22 25 0 14
-26 11 -40 -6 -7 -8 -16 -12 -21 -9 -5 3 -9 -2 -9 -11 0 -9 -4 -13 -10 -10
-13 8 33 76 72 106 66 50 88 58 88 34z"/>
<path d="M2322 2378 c-32 -32 2 -79 43 -60 29 13 32 34 9 56 -19 19 -36 20
-52 4z"/>
<path d="M2531 2359 c-7 -24 -22 -60 -33 -79 l-20 -35 20 19 c22 19 56 108 50
127 -2 7 -10 -8 -17 -32z"/>
<path d="M1217 2475 c-74 -27 -158 -102 -196 -172 -20 -38 -2 -26 66 43 72 73
142 111 223 121 28 3 53 10 56 14 8 14 -107 9 -149 -6z"/>
<path d="M733 1955 c15 -8 47 -29 70 -48 38 -31 79 -58 67 -45 -25 27 -137
108 -149 108 -9 0 -4 -6 12 -15z"/>
<path d="M1535 1875 c-81 -49 -224 -67 -310 -40 -20 6 -20 6 0 -7 13 -8 52
-13 110 -12 95 0 172 22 225 64 34 26 24 24 -25 -5z"/>
<path d="M1221 1646 c-22 -26 -9 -69 22 -80 47 -17 84 23 66 72 -6 17 -16 22
-42 22 -19 0 -40 -6 -46 -14z m44 -32 c0 -19 -5 -29 -15 -29 -16 0 -25 28 -16
51 10 25 31 10 31 -22z"/>
<path d="M1407 1412 c17 -15 43 -40 57 -57 14 -16 26 -24 26 -18 0 18 -84 103
-101 103 -8 0 -1 -12 18 -28z"/>
<path d="M1083 1187 c-15 -25 -55 -40 -132 -47 l-76 -7 68 -2 c50 -1 78 4 107
19 39 20 56 37 47 46 -3 3 -9 -1 -14 -9z"/>
<path d="M915 984 c-37 -19 -45 -31 -45 -71 0 -36 38 -73 74 -73 16 1 14 4
-11 15 -41 18 -60 54 -43 84 14 28 55 44 92 36 32 -7 48 -31 49 -72 0 -27 1
-27 9 -5 14 34 -5 71 -45 87 -43 18 -43 18 -80 -1z"/>
<path d="M1050 968 c0 -4 4 -17 9 -30 23 -60 -46 -125 -122 -115 -39 5 -87 40
-87 63 0 7 -5 16 -11 20 -21 13 2 -40 30 -69 71 -73 211 -23 211 76 0 20 -29
74 -30 55z"/>
<path d="M1869 920 c24 -22 46 -39 47 -37 6 6 -68 77 -80 77 -6 0 9 -18 33
-40z"/>
<path d="M1749 890 c10 -22 30 -54 45 -70 14 -17 24 -30 21 -30 -3 0 6 -12 20
-27 14 -15 25 -31 25 -35 0 -4 14 -29 30 -55 17 -26 30 -55 30 -65 0 -10 4
-18 9 -18 5 0 12 -8 14 -17 4 -16 5 -16 6 0 2 29 -66 155 -125 233 -29 40 -59
83 -65 98 -7 14 -16 26 -20 26 -4 0 0 -18 10 -40z"/>
<path d="M740 733 c0 -5 15 -15 33 -23 38 -18 72 -66 81 -115 13 -68 -30 -161
-91 -200 -35 -22 -42 -35 -18 -35 9 0 37 21 63 48 49 49 72 101 72 163 0 38
-29 107 -52 126 -21 18 -88 45 -88 36z"/>
<path d="M1412 697 c109 -49 131 -184 38 -232 -107 -55 -238 62 -186 166 20
40 14 50 -9 15 -13 -20 -16 -40 -13 -82 4 -47 10 -61 40 -90 96 -97 248 -40
248 93 0 66 -69 144 -125 142 -17 0 -16 -3 7 -12z"/>
<path d="M654 666 c-29 -13 -79 -64 -70 -73 2 -2 17 10 34 27 25 24 39 30 74
30 78 0 114 -66 79 -145 -33 -74 -104 -96 -160 -49 -35 30 -42 18 -8 -14 97
-90 251 46 192 171 -10 21 -30 42 -50 51 -40 19 -51 19 -91 2z"/>
<path d="M1590 545 c0 -60 -40 -124 -95 -153 -109 -56 -232 -18 -295 91 -33
57 -42 49 -11 -11 25 -49 66 -86 121 -111 113 -51 246 3 284 116 18 53 21 103
6 103 -5 0 -10 -16 -10 -35z"/>
<path d="M1882 509 c-48 -31 -119 -159 -88 -159 7 0 21 21 31 46 23 61 77 114
115 114 17 0 30 5 30 10 0 17 -54 10 -88 -11z"/>
<path d="M1981 418 c-1 -35 1 -37 22 -29 29 11 38 46 9 37 -15 -5 -22 -2 -25
11 -3 10 -5 1 -6 -19z"/>
<path d="M1741 412 c-24 -46 -31 -72 -18 -72 7 0 18 19 24 42 13 48 10 60 -6
30z"/>
</g>
</svg>
