<?xml version="1.0" standalone="no"?>
<!DOCTYPE svg PUBLIC "-//W3C//DTD SVG 20010904//EN"
 "http://www.w3.org/TR/2001/REC-SVG-20010904/DTD/svg10.dtd">
<svg version="1.0" xmlns="http://www.w3.org/2000/svg"
 width="300.000000pt" height="300.000000pt" viewBox="0 0 300.000000 300.000000"
 preserveAspectRatio="xMidYMid meet">
<metadata>
Created by potrace 1.10, written by Peter Selinger 2001-2011
</metadata>
<g transform="translate(0.000000,300.000000) scale(0.100000,-0.100000)"
fill="#000000" stroke="none">
<path d="M1413 2735 c-149 -32 -299 -149 -367 -286 -20 -40 -36 -78 -36 -85 0
-8 -11 -14 -25 -14 -15 0 -41 -14 -63 -34 l-37 -35 2 -100 c1 -74 5 -107 18
-129 20 -33 63 -62 94 -62 14 0 27 -13 42 -42 25 -49 75 -117 102 -136 17 -13
16 -16 -13 -48 -16 -19 -32 -45 -36 -59 -5 -21 -82 -95 -98 -95 -17 0 0 29 49
82 30 32 55 65 55 71 0 21 -30 57 -48 57 -9 0 -30 -7 -46 -15 -27 -14 -30 -14
-43 5 -8 11 -23 20 -35 20 -23 0 -88 -63 -88 -86 0 -8 -7 -14 -15 -14 -9 0
-27 -11 -41 -25 -13 -13 -33 -29 -43 -35 -11 -5 -23 -24 -26 -42 -4 -18 -18
-65 -31 -105 -42 -127 -24 -217 57 -270 38 -25 51 -28 123 -28 69 1 89 5 135
29 l54 28 -6 -69 c-4 -37 -7 -85 -7 -105 0 -36 -1 -37 -57 -55 -70 -22 -99
-62 -88 -119 5 -32 22 -47 152 -142 l145 -107 -6 -184 -6 -183 35 -35 c57 -57
77 -49 293 109 l92 68 138 -50 c75 -28 147 -55 160 -60 63 -27 142 15 142 76
0 14 -23 100 -50 190 l-50 163 37 49 c21 27 71 90 111 141 59 76 72 99 72 129
0 51 -41 92 -91 92 -33 0 -37 3 -42 30 -12 56 -1 62 56 32 44 -22 65 -26 133
-27 71 0 85 3 122 27 59 39 77 78 76 163 -1 50 -9 89 -28 138 -14 37 -26 76
-26 87 0 11 -9 24 -20 30 -11 6 -31 22 -44 35 -14 14 -31 25 -38 25 -7 0 -25
21 -40 45 -33 55 -72 69 -99 36 -17 -21 -20 -21 -48 -7 -39 21 -54 20 -74 -2
-27 -30 -20 -48 38 -112 50 -54 66 -80 49 -80 -16 0 -97 77 -108 104 -8 17
-23 41 -35 53 -11 12 -21 25 -21 29 0 3 19 27 43 53 40 46 75 104 97 164 6 17
17 27 30 27 11 0 37 15 58 34 l37 34 0 94 c0 56 -5 106 -14 125 -14 36 -66 73
-99 73 -15 0 -30 17 -54 62 -113 212 -364 325 -605 273z m300 -48 c37 -14 86
-37 108 -53 53 -36 131 -105 126 -111 -3 -2 -26 10 -53 26 -194 118 -528 119
-718 1 -27 -17 -50 -29 -53 -27 -6 6 84 85 132 115 46 29 122 60 180 72 69 15
203 4 278 -23z m22 -102 c85 -22 181 -71 233 -118 70 -65 69 -61 78 -284 l6
-122 -39 -78 c-21 -43 -51 -93 -68 -112 -16 -18 -29 -37 -28 -41 4 -12 -69
-66 -135 -99 -116 -59 -235 -74 -363 -47 -71 15 -177 64 -209 96 -11 11 -22
20 -25 20 -10 -1 -74 88 -68 94 4 3 -1 6 -11 6 -9 0 -14 5 -11 10 3 6 2 10 -3
10 -9 0 -42 70 -59 125 -5 17 -11 78 -12 138 -2 83 0 107 11 107 9 0 9 3 2 8
-20 13 -12 46 19 79 17 18 34 30 38 27 4 -2 10 5 14 16 3 11 9 19 13 18 13 -2
58 20 71 36 7 8 28 18 47 22 19 3 37 10 40 15 3 5 24 9 47 9 23 0 65 6 92 13
28 7 91 11 140 10 50 -1 105 -2 123 -3 18 0 30 -4 28 -9 -3 -5 5 -11 19 -13
13 -3 22 -1 19 3 -3 5 0 9 5 9 6 0 11 -4 11 -10 0 -5 3 -9 8 -8 16 4 71 -14
82 -27 6 -8 19 -11 27 -8 11 4 14 2 9 -5 -4 -7 -1 -12 8 -12 9 0 16 -4 16 -10
0 -5 11 -12 25 -16 14 -3 33 -16 43 -28 29 -35 45 -29 17 8 -84 110 -285 174
-510 163 -182 -10 -301 -52 -387 -138 -27 -27 -48 -42 -48 -35 0 22 94 103
157 135 56 28 138 53 208 65 57 9 260 -3 320 -19z m367 -224 c41 -21 58 -67
58 -156 0 -75 -1 -78 -35 -112 -19 -19 -38 -32 -43 -29 -4 3 -4 32 2 66 9 58
1 161 -20 229 -4 14 -3 22 2 20 5 -3 21 -11 36 -18z m-1106 -56 c-16 -64 -17
-144 -2 -214 9 -41 14 -76 13 -77 -7 -7 -52 24 -70 48 -17 22 -20 44 -21 118
-1 91 -1 92 32 121 40 36 56 37 48 4z m-50 -520 c4 -8 -1 -30 -10 -49 -9 -19
-16 -41 -16 -49 0 -9 -4 -19 -10 -22 -5 -3 -10 -1 -10 4 0 6 -9 20 -20 31 -17
17 -19 24 -9 43 28 53 63 73 75 42z m1250 -25 l27 -41 -21 -15 c-12 -8 -22
-22 -22 -30 0 -8 -4 -14 -10 -14 -5 0 -10 10 -10 23 -1 12 -7 33 -15 47 -41
71 6 98 51 30z m-1129 15 c3 -10 -14 -37 -51 -75 -42 -44 -56 -66 -56 -88 0
-37 13 -48 72 -56 26 -4 50 -12 54 -18 12 -18 -23 -40 -72 -45 -81 -8 -184
-42 -177 -59 7 -18 9 -18 78 6 90 31 93 30 84 -38 -7 -63 -20 -94 -52 -129
-17 -19 -31 -23 -81 -23 -100 0 -162 46 -173 128 -7 49 4 132 18 132 5 0 9 -5
9 -12 0 -16 41 -58 57 -58 21 0 15 16 -17 48 -20 21 -30 40 -30 61 0 35 14 40
30 11 13 -24 52 -26 70 -5 7 8 24 15 37 15 18 0 28 8 36 30 6 17 15 30 19 30
4 0 8 7 8 15 0 27 38 92 70 119 36 29 58 33 67 11z m1017 -15 c19 -17 43 -52
52 -78 10 -26 21 -49 24 -52 3 -3 11 -17 17 -32 9 -20 20 -28 37 -28 13 0 29
-7 36 -15 18 -22 55 -18 73 8 8 12 18 19 23 15 12 -12 -15 -87 -36 -101 -23
-14 -26 -37 -6 -37 14 0 50 39 59 63 8 24 18 -1 23 -65 12 -119 -51 -188 -171
-188 -31 0 -65 5 -76 11 -26 13 -54 79 -63 147 -8 62 -3 64 89 32 54 -19 75
-19 75 -1 0 12 -118 48 -179 55 -30 3 -59 10 -64 15 -18 18 2 39 45 46 58 10
78 22 78 46 0 30 -17 59 -68 111 -29 30 -43 52 -39 62 9 24 33 19 71 -14z
m-894 11 c0 -12 -51 -53 -58 -46 -6 6 38 55 50 55 4 0 8 -4 8 -9z m755 -49
c-7 -7 -55 39 -55 52 0 5 13 -3 30 -19 16 -16 28 -31 25 -33z m-635 -31 c91
-43 199 -58 303 -43 79 12 192 55 229 89 17 15 21 14 56 -15 20 -18 68 -56
106 -84 l69 -53 -40 -3 c-82 -6 -99 -84 -23 -108 34 -11 35 -13 42 -77 3 -36
11 -74 17 -85 16 -29 14 -34 -9 -22 -11 6 -29 29 -40 51 -12 22 -27 42 -35 46
-8 3 -15 13 -15 22 0 22 -39 133 -51 146 -13 13 -11 -8 7 -77 8 -33 13 -62 11
-64 -2 -3 -16 0 -31 6 -15 5 -51 10 -80 10 l-53 0 -5 50 c-9 89 -12 90 -228
90 -181 0 -187 -1 -208 -22 -13 -15 -22 -39 -24 -68 l-3 -45 -65 -7 c-36 -3
-75 -9 -86 -13 l-22 -7 19 68 c10 38 15 72 10 77 -7 7 -34 -56 -56 -133 -4
-14 -18 -38 -31 -53 -13 -16 -24 -35 -24 -42 0 -13 -37 -45 -52 -45 -4 0 2 19
12 43 11 24 20 64 20 95 0 48 2 52 23 52 29 0 53 18 62 47 9 32 -26 63 -72 64
l-38 0 29 22 c16 12 62 50 104 85 67 57 76 62 91 48 9 -8 45 -29 81 -45z
m-450 -11 c24 -24 27 -80 5 -80 -9 0 -20 11 -25 25 -5 13 -18 30 -29 37 -15 9
-17 15 -9 25 15 18 35 16 58 -7z m1415 10 c4 -6 -5 -24 -19 -41 -14 -17 -26
-35 -26 -40 0 -15 -27 -10 -34 7 -6 15 5 45 27 72 11 15 43 16 52 2z m-1473
-57 c22 -20 24 -51 3 -59 -19 -8 -68 43 -61 62 7 19 35 18 58 -3z m1533 2 c0
-21 -45 -67 -60 -61 -35 13 0 80 39 74 12 -2 21 -8 21 -13z m-931 -153 c-9
-11 -30 -61 -46 -111 -16 -50 -34 -91 -39 -91 -6 0 -8 8 -5 18 3 9 10 62 16
117 7 55 16 105 22 112 5 6 22 13 36 15 21 2 28 -2 30 -19 2 -12 -4 -30 -14
-41z m323 42 c6 -9 14 -50 18 -92 3 -43 8 -93 11 -113 4 -26 0 -41 -11 -53
-30 -30 -43 -20 -107 80 -5 7 2 9 20 7 43 -7 67 18 67 70 0 55 -18 77 -61 77
-41 0 -64 -22 -65 -63 0 -29 -1 -30 -12 -13 -37 58 -70 86 -103 86 -26 0 -34
4 -34 18 0 15 12 17 132 14 105 -3 135 -6 145 -18z m-115 -194 c54 -80 99
-148 100 -152 2 -4 86 -10 188 -14 295 -10 296 -14 63 -303 l-60 -74 55 -175
c59 -192 60 -218 10 -236 -22 -8 -56 2 -193 52 -91 34 -169 62 -174 62 -5 0
-76 -47 -157 -105 -81 -58 -156 -105 -166 -105 -10 0 -30 12 -45 26 -22 23
-25 31 -19 77 3 29 7 110 8 182 l2 130 -129 97 c-72 54 -140 109 -152 123 -54
62 -19 90 181 145 86 24 163 49 170 54 7 6 37 81 65 166 65 192 71 202 119
198 35 -3 41 -9 134 -148z m86 114 c4 -41 -19 -61 -53 -46 -46 21 -26 86 25
80 20 -2 26 -9 28 -34z m-398 -56 c0 -13 -3 -39 -6 -59 -6 -35 -8 -37 -56 -43
-28 -4 -73 -16 -101 -26 -56 -21 -67 -17 -67 30 0 58 54 97 153 109 34 5 65 9
70 10 4 0 7 -9 7 -21z m632 -6 c46 -18 68 -48 68 -90 0 -49 -5 -53 -44 -37
-17 8 -63 20 -101 28 -57 11 -70 17 -71 33 -1 10 -3 33 -4 49 -1 17 -2 32 -1
36 2 8 122 -7 153 -19z m-629 -142 c5 -19 -12 -83 -26 -97 -4 -3 -55 -21 -113
-38 -103 -32 -105 -32 -100 -11 3 11 8 40 12 63 8 52 18 61 97 84 86 24 123
24 130 -1z m626 -7 c87 -29 73 -38 -59 -38 -66 0 -119 2 -117 5 1 3 9 18 17
34 13 26 17 28 60 23 25 -3 69 -14 99 -24z"/>
<path d="M1363 2504 c-46 -12 -83 -20 -83 -18 0 2 -9 -5 -20 -16 -11 -11 -29
-20 -40 -20 -11 0 -20 -5 -20 -11 0 -5 -4 -8 -9 -5 -5 3 -16 -6 -25 -19 -9
-14 -21 -23 -26 -20 -6 4 -10 -1 -10 -10 0 -10 -5 -13 -12 -9 -7 4 -10 3 -5
-1 4 -5 0 -16 -8 -25 -16 -18 -20 -37 -34 -150 -6 -52 -4 -77 11 -127 11 -35
21 -63 22 -63 2 0 1 57 -1 128 -5 124 -4 128 24 182 20 39 42 64 76 87 59 40
178 78 271 88 55 6 65 10 50 18 -29 16 -73 14 -161 -9z"/>
<path d="M1472 2460 c-155 -56 -258 -170 -321 -358 -12 -34 -21 -69 -21 -79 1
-23 69 86 70 110 0 25 40 117 51 117 5 0 9 6 9 14 0 7 18 30 40 50 22 20 37
36 33 36 -5 0 0 5 10 11 9 5 23 7 30 3 6 -4 9 -4 5 1 -4 4 -2 13 5 19 16 16
110 61 120 58 8 -2 37 22 37 32 0 9 -11 7 -68 -14z"/>
<path d="M1862 2310 c-45 -27 -74 -77 -60 -103 7 -15 7 -18 -2 -12 -17 10 -3
-34 19 -60 31 -38 46 -45 81 -40 19 3 41 6 48 7 7 1 15 12 18 25 4 12 9 21 13
19 8 -5 12 19 12 74 1 53 -3 70 -12 64 -4 -2 -16 6 -26 18 -24 30 -51 33 -91
8z m82 -26 c50 -50 12 -174 -54 -174 -32 0 -60 39 -60 81 0 42 21 94 42 102
26 11 57 7 72 -9z"/>
<path d="M1799 2085 c-14 -8 -34 -26 -44 -41 -14 -22 -15 -30 -5 -49 27 -51
103 -50 116 2 4 14 11 20 18 16 6 -4 3 4 -7 17 -9 14 -22 35 -29 48 -13 26
-14 26 -49 7z m49 -62 c2 -24 -2 -34 -17 -43 -28 -15 -61 3 -61 33 0 31 20 48
50 45 20 -2 26 -9 28 -35z"/>
<path d="M1246 1776 c11 -8 49 -25 85 -38 55 -20 83 -23 199 -23 112 0 147 4
205 22 39 12 79 29 90 38 19 16 18 16 -15 10 -19 -4 -42 -8 -50 -10 -8 -1 -28
-8 -45 -15 -42 -18 -228 -24 -300 -10 -33 6 -69 13 -80 14 -11 2 -33 9 -48 15
-16 6 -36 11 -45 11 -14 0 -13 -3 4 -14z"/>
<path d="M855 1301 c-57 -5 -65 -7 -42 -14 29 -8 91 -1 117 14 8 5 11 8 5 7
-5 -1 -41 -4 -80 -7z"/>
<path d="M2144 1299 c22 -14 120 -19 138 -7 8 4 -12 8 -47 8 -33 0 -71 3 -85
6 -23 5 -23 4 -6 -7z"/>
<path d="M1803 1680 c-29 -15 -79 -38 -110 -49 -32 -11 -51 -20 -42 -21 41 -1
209 77 209 96 0 6 0 6 -57 -26z"/>
<path d="M1234 1692 c12 -20 117 -69 161 -76 31 -4 25 0 -27 18 -36 13 -83 34
-104 47 -21 12 -34 17 -30 11z"/>
<path d="M2056 1065 c-15 -20 -37 -46 -49 -58 -131 -136 -156 -168 -163 -201
-3 -20 -4 -46 -1 -59 4 -12 15 -56 26 -97 27 -97 28 -180 4 -180 -47 0 -121
30 -246 98 l-58 32 -64 -52 c-103 -84 -120 -97 -177 -124 -52 -25 -52 -26 -16
-21 21 3 57 21 82 39 24 18 56 42 72 53 15 11 45 34 68 52 22 17 43 30 47 28
3 -3 19 -9 34 -15 23 -9 25 -13 15 -25 -7 -9 -11 -17 -9 -18 32 -21 84 -36 92
-28 8 8 5 11 -10 11 -27 0 -77 26 -65 34 12 7 38 -1 72 -24 14 -9 37 -20 53
-24 15 -3 27 -11 27 -16 0 -5 -7 -7 -15 -4 -8 4 -15 4 -15 1 0 -3 14 -10 30
-16 18 -6 28 -6 25 -1 -4 6 11 9 34 8 23 -1 44 2 48 5 17 18 -5 216 -27 242
-16 19 -14 99 2 130 9 17 27 40 40 52 12 12 28 28 34 35 6 7 28 28 49 46 21
17 34 32 30 32 -5 0 2 12 16 28 50 55 62 72 52 72 -6 0 -23 -16 -37 -35z"/>
<path d="M967 983 c-8 -13 56 -72 129 -120 98 -63 150 -110 160 -145 7 -21 7
-68 1 -129 -5 -63 -5 -107 2 -130 10 -34 11 -34 7 11 -2 25 1 88 6 142 9 101
2 139 -30 168 -9 8 -63 46 -120 84 -56 38 -113 82 -126 98 -13 17 -26 26 -29
21z"/>
<path d="M1448 432 c-26 -20 -46 -38 -43 -40 2 -2 23 11 47 29 24 19 45 35 47
36 2 2 2 5 0 7 -2 3 -25 -12 -51 -32z"/>
<path d="M1875 420 c22 -10 54 -19 70 -19 23 0 15 5 -30 19 -75 24 -93 24 -40
0z"/>
<path d="M1328 349 c-15 -11 -36 -21 -48 -22 -12 -1 -16 -5 -10 -11 9 -9 75
19 87 37 10 17 -3 15 -29 -4z"/>
<path d="M1206 1319 c-56 -13 -60 -23 -6 -14 46 7 91 25 60 24 -8 -1 -33 -5
-54 -10z"/>
<path d="M1820 1326 c0 -7 104 -36 109 -31 2 3 -2 6 -10 9 -8 2 -29 9 -48 15
-36 12 -51 14 -51 7z"/>
<path d="M537 2672 c-21 -23 -21 -27 -1 -46 22 -22 51 -20 64 5 9 16 8 25 -6
40 -21 24 -36 24 -57 1z m51 -25 c4 -20 -25 -34 -40 -19 -15 15 -1 44 19 40
10 -2 19 -11 21 -21z"/>
<path d="M2476 2658 l-29 -28 26 0 c18 0 26 7 31 26 4 15 6 27 4 28 -2 1 -16
-11 -32 -26z"/>
<path d="M2520 2687 c0 -25 22 -57 40 -57 27 0 26 -18 -2 -22 -14 -2 -24 -13
-29 -31 l-8 -29 36 37 35 36 -36 36 c-20 20 -36 34 -36 30z"/>
<path d="M2450 2614 c0 -6 52 -55 56 -52 11 11 -11 47 -32 51 -13 2 -24 3 -24
1z"/>
<path d="M2137 2573 c-26 -25 10 -62 41 -43 14 9 13 10 -6 5 -15 -4 -24 -1
-28 10 -9 23 4 31 26 17 17 -10 20 -10 20 3 0 15 -40 21 -53 8z"/>
<path d="M362 2308 c-15 -15 -15 -39 1 -58 13 -16 51 -24 41 -9 -3 5 -1 9 4 9
12 0 22 35 13 48 -10 16 -46 23 -59 10z m43 -32 c0 -22 -14 -29 -34 -17 -19
12 -6 43 16 39 10 -2 18 -12 18 -22z"/>
<path d="M2574 2206 c-3 -8 3 -23 12 -35 21 -25 44 -12 44 25 0 19 -5 24 -25
24 -14 0 -28 -6 -31 -14z m46 -8 c0 -7 -4 -19 -9 -26 -7 -11 -10 -10 -15 3
-10 26 -7 35 9 35 8 0 15 -6 15 -12z"/>
<path d="M383 1283 c-17 -6 -16 -38 1 -52 28 -23 68 17 45 45 -12 14 -24 16
-46 7z m42 -13 c7 -11 -12 -40 -25 -40 -11 0 -21 30 -14 41 7 12 31 11 39 -1z"/>
<path d="M2608 1112 c-31 -19 -35 -34 -13 -52 8 -7 13 -16 10 -20 -9 -14 35
-22 50 -10 8 6 19 9 24 5 7 -3 8 0 5 9 -8 20 -30 21 -38 1 -3 -8 -10 -15 -17
-15 -6 0 -9 7 -5 15 3 9 -3 19 -15 25 -22 12 -17 32 6 24 8 -4 18 1 21 10 8
21 24 20 24 -2 0 -9 9 -23 20 -30 18 -11 19 -10 7 16 -20 46 -35 50 -79 24z"/>
<path d="M2646 744 c-19 -19 -20 -33 -2 -56 19 -26 28 -10 9 18 -14 22 -14 24
0 30 24 9 39 -5 31 -28 -4 -14 -2 -18 5 -14 18 11 13 44 -8 56 -15 7 -23 6
-35 -6z"/>
<path d="M427 643 c-10 -10 -8 -51 3 -58 20 -12 56 6 56 28 -1 28 -41 48 -59
30z m41 -30 c-2 -10 -10 -18 -18 -18 -8 0 -16 8 -18 18 -2 12 3 17 18 17 15 0
20 -5 18 -17z"/>
<path d="M534 486 c-3 -9 -12 -16 -20 -16 -8 0 -14 -4 -14 -10 0 -20 38 -10
43 12 7 27 0 38 -9 14z"/>
<path d="M567 470 c3 -12 14 -20 27 -20 19 1 20 2 4 14 -10 7 -15 16 -11 19 3
4 -1 7 -9 7 -11 0 -14 -6 -11 -20z"/>
<path d="M500 431 c0 -4 12 -18 27 -30 20 -18 25 -20 20 -6 -4 9 -7 20 -7 25
0 4 -9 10 -20 13 -11 3 -20 2 -20 -2z"/>
<path d="M589 433 c-10 -2 -19 -13 -22 -24 -7 -26 3 -24 32 6 23 25 22 27 -10
18z"/>
</g>
</svg>
