<?xml version="1.0" standalone="no"?>
<!DOCTYPE svg PUBLIC "-//W3C//DTD SVG 20010904//EN"
 "http://www.w3.org/TR/2001/REC-SVG-20010904/DTD/svg10.dtd">
<svg version="1.0" xmlns="http://www.w3.org/2000/svg"
 width="275.000000pt" height="183.000000pt" viewBox="0 0 275.000000 183.000000"
 preserveAspectRatio="xMidYMid meet">
<metadata>
Created by potrace 1.10, written by Peter Selinger 2001-2011
</metadata>
<g transform="translate(0.000000,183.000000) scale(0.100000,-0.100000)"
fill="#000000" stroke="none">
<path d="M0 915 l0 -915 1375 0 1375 0 0 915 0 915 -1375 0 -1375 0 0 -915z
m807 603 c-3 -8 -6 -5 -6 6 -1 11 2 17 5 13 3 -3 4 -12 1 -19z m973 -269 c0
-240 -2 -288 -14 -292 -12 -5 -14 5 -11 51 3 31 0 64 -6 72 -8 12 -9 10 -4 -8
4 -14 0 -33 -10 -49 -14 -21 -15 -27 -4 -34 11 -7 11 -9 -1 -9 -11 0 -12 -2
-2 -8 7 -5 21 -32 31 -60 17 -46 19 -84 21 -327 1 -219 -2 -275 -12 -275 -10
0 -13 53 -13 252 0 231 -1 251 -17 254 -16 2 -18 -7 -19 -64 0 -37 0 -87 -1
-112 -2 -190 3 -323 12 -310 8 13 10 13 10 -1 0 -21 -9 -29 -26 -22 -11 4 -14
50 -14 258 0 162 -4 256 -10 260 -12 7 -43 -61 -35 -75 4 -6 1 -10 -5 -10 -6
0 -9 -4 -6 -9 3 -5 0 -11 -7 -14 -11 -4 -11 7 2 57 l15 63 50 2 c28 1 51 3 52
4 1 1 -5 25 -14 54 -10 30 -24 54 -34 56 -22 6 -20 44 4 76 19 26 24 56 9 66
-5 3 -13 19 -16 37 -4 17 -23 47 -41 66 -29 30 -43 36 -88 40 -30 2 -63 -1
-75 -7 -13 -7 -21 -8 -21 -2 0 19 36 29 88 26 55 -4 112 -31 112 -52 0 -7 5
-13 10 -13 6 0 10 52 10 135 0 74 3 135 8 135 4 0 7 -62 7 -138 0 -80 4 -140
10 -144 6 -5 6 -8 -2 -8 -6 0 -9 -9 -6 -20 3 -11 9 -20 14 -20 5 0 9 -5 9 -11
0 -5 -5 -7 -12 -3 -7 4 -8 3 -4 -4 4 -7 14 -12 22 -12 11 0 15 9 12 33 -1 17
-7 35 -13 39 -6 5 -5 8 3 8 10 0 13 32 11 153 -1 83 -4 160 -6 170 -4 14 -16
17 -80 17 -55 0 -74 -3 -70 -12 2 -8 21 -13 45 -13 22 0 47 -6 54 -13 10 -10
-44 -12 -283 -12 -162 1 -301 5 -308 9 -25 16 19 19 234 17 116 -2 219 1 230
5 11 5 -77 9 -195 10 -118 0 -281 2 -362 4 l-148 3 -2 -566 c-2 -312 0 -583 3
-602 4 -19 7 -32 8 -28 0 4 12 3 26 -2 l25 -10 0 580 0 580 65 0 c62 0 234
-39 392 -88 34 -11 65 -17 68 -14 3 3 5 -36 5 -86 0 -50 -4 -94 -10 -97 -6 -4
-10 23 -10 73 0 52 -4 83 -12 89 -7 5 -51 20 -98 32 -47 13 -128 36 -181 52
-99 30 -169 37 -169 18 0 -6 -7 -9 -15 -5 -13 5 -15 -64 -17 -550 -2 -306 -1
-559 2 -563 9 -13 110 -42 122 -35 7 4 8 3 4 -4 -4 -7 -3 -12 3 -12 5 0 17 -3
27 -7 11 -4 15 -2 11 4 -4 6 3 8 18 5 14 -2 23 -8 20 -12 -3 -5 20 -14 50 -21
31 -7 58 -16 61 -20 2 -5 11 -6 19 -2 9 3 21 1 28 -5 20 -16 74 -24 82 -13 10
17 25 13 19 -4 -5 -11 -2 -13 10 -9 8 3 15 9 14 12 -3 28 4 82 10 78 16 -9 13
-86 -3 -102 -18 -18 -12 -19 -352 75 -101 27 -195 49 -210 48 l-28 -2 -3 615
-2 615 465 0 465 0 0 -286z m-705 181 c20 -9 20 -9 0 -9 -11 0 -27 4 -35 9
-13 9 -13 10 0 9 8 0 24 -4 35 -9z m65 -14 c0 -3 -4 -8 -10 -11 -5 -3 -10 -1
-10 4 0 6 5 11 10 11 6 0 10 -2 10 -4z m87 -32 c-3 -3 -12 -4 -19 -1 -8 3 -5
6 6 6 11 1 17 -2 13 -5z m49 -21 c-6 -6 -36 9 -36 18 0 5 9 4 20 -3 10 -7 18
-14 16 -15z m94 -14 c18 -11 -34 -1 -65 13 -13 5 -9 6 15 2 19 -4 42 -10 50
-15z m40 -29 c0 -5 -2 -10 -4 -10 -3 0 -8 5 -11 10 -3 6 -1 10 4 10 6 0 11 -4
11 -10z m210 -142 c82 -42 102 -110 49 -166 -18 -20 -19 -24 -5 -38 21 -21 20
-30 0 -13 -11 9 -36 13 -75 11 -38 -3 -69 2 -91 12 -33 16 -34 19 -36 78 -2
55 1 63 26 85 l27 25 -27 -6 c-34 -8 -38 11 -5 24 39 15 91 11 137 -12z m-813
-605 c-1 -109 -2 -20 -2 197 0 217 1 306 2 198 2 -109 2 -287 0 -395z m613
523 c0 -8 -4 -18 -10 -21 -5 -3 -10 3 -10 14 0 12 5 21 10 21 6 0 10 -6 10
-14z m485 4 c-3 -5 -12 -10 -18 -10 -7 0 -6 4 3 10 19 12 23 12 15 0z m70 -30
c3 -6 -1 -7 -9 -4 -18 7 -21 14 -7 14 6 0 13 -4 16 -10z m-115 -26 c0 -9 -9
-29 -20 -44 -21 -29 -19 -55 5 -64 14 -5 45 18 45 34 0 14 29 20 52 10 21 -8
19 -9 -12 -10 -33 -1 -33 -2 -12 -12 12 -6 22 -15 22 -20 0 -12 -14 -10 -28 4
-7 7 -12 8 -12 2 0 -15 -47 -35 -65 -28 -9 4 -20 14 -25 24 -10 18 -3 60 10
60 5 0 11 14 15 30 7 31 25 42 25 14z m55 -14 c-12 -4 -27 -16 -35 -26 -14
-16 -13 -16 10 -4 32 18 49 20 56 9 3 -5 -4 -9 -16 -9 -11 0 -29 -6 -40 -12
-14 -9 -22 -10 -31 -1 -16 16 19 51 51 52 23 0 23 -1 5 -9z m-455 -150 l0
-108 31 -11 c42 -14 49 -14 49 3 0 19 13 27 29 17 10 -7 8 -13 -9 -29 -22 -21
-22 -21 -1 -15 14 4 21 1 21 -9 0 -8 11 -36 24 -61 13 -26 20 -47 15 -47 -11
0 -39 54 -39 75 0 9 -9 15 -24 15 -13 0 -41 6 -62 14 l-39 13 3 -132 3 -132
60 -18 c32 -10 59 -20 59 -22 0 -2 -7 -20 -16 -41 -14 -35 -14 -38 6 -54 19
-15 20 -19 6 -24 -18 -7 -64 19 -72 41 -3 7 -1 30 5 51 12 44 14 40 -22 49
l-27 7 0 -65 c0 -59 2 -66 27 -82 15 -10 46 -20 70 -23 50 -5 53 -25 5 -30
-34 -4 -90 21 -99 43 -3 8 -9 13 -13 10 -4 -3 -9 104 -10 238 -1 133 -2 260
-3 282 -2 78 6 164 14 159 5 -3 9 -54 9 -114z m540 116 c0 -3 -4 -8 -10 -11
-5 -3 -10 -1 -10 4 0 6 5 11 10 11 6 0 10 -2 10 -4z m-133 -34 c-10 -2 -14 -8
-10 -15 4 -7 0 -6 -10 2 -22 17 -13 31 16 23 18 -5 19 -7 4 -10z m-329 -9 c17
-3 32 -9 32 -13 0 -11 -52 -5 -78 9 -26 14 -29 26 -4 16 9 -4 32 -9 50 -12z
m80 -30 c-12 -48 -34 -71 -24 -28 5 22 4 26 -4 15 -14 -22 -12 -50 4 -50 12 0
12 -6 3 -29 -7 -18 -16 -27 -24 -24 -27 10 12 153 41 153 12 0 12 -7 4 -37z
m-209 -77 c-9 -8 -10 -5 -5 14 3 14 7 41 8 60 1 27 3 23 5 -14 3 -30 0 -53 -8
-60z m420 18 c-18 -13 -35 -22 -37 -19 -8 8 51 54 60 48 5 -3 -5 -16 -23 -29z
m-329 -14 c0 -5 -5 -10 -11 -10 -5 0 -7 5 -4 10 3 6 8 10 11 10 2 0 4 -4 4
-10z m40 -35 c0 -7 -7 -15 -15 -19 -11 -4 -15 2 -15 26 0 26 2 29 15 18 8 -7
15 -18 15 -25z m95 18 c-4 -10 -8 -26 -10 -36 -9 -41 -17 -57 -30 -57 -8 0
-11 7 -8 20 3 11 9 20 13 20 4 0 8 12 8 26 0 15 6 30 13 35 20 12 22 11 14 -8z
m-275 -38 c-1 -18 -1 -19 -11 -2 -16 28 -47 4 -52 -41 -3 -30 -4 -27 -5 16
l-2 53 35 -3 c28 -2 35 -6 35 -23z m-18 -27 c3 -7 -1 -24 -9 -38 -12 -24 -13
-24 -13 -3 0 12 -3 28 -6 37 -4 10 -1 16 9 16 8 0 17 -6 19 -12z m-24 -86 c7
-5 10 -16 6 -25 -7 -19 6 -23 23 -6 7 7 12 3 15 -15 l5 -25 -31 17 c-17 9 -42
19 -56 22 -14 3 -26 13 -28 23 -3 13 3 17 25 17 15 0 34 -4 41 -8z m190 -102
c15 0 15 2 2 10 -11 7 5 10 53 10 37 0 67 -4 67 -8 0 -5 -6 -9 -12 -10 -96 -8
-128 -16 -128 -32 0 -19 37 -38 84 -42 26 -3 30 1 39 32 5 19 12 29 14 23 6
-18 -17 -123 -27 -123 -5 0 -5 12 -1 28 8 25 6 27 -24 28 -18 0 -46 6 -64 13
-29 12 -31 17 -30 60 1 25 3 38 6 29 2 -10 12 -18 21 -18z m-111 -2 c-3 -8 -6
-5 -6 6 -1 11 2 17 5 13 3 -3 4 -12 1 -19z m10 -90 c-2 -13 -4 -3 -4 22 0 25
2 35 4 23 2 -13 2 -33 0 -45z m0 -115 c-3 -10 -5 -2 -5 17 0 19 2 27 5 18 2
-10 2 -26 0 -35z m-600 -55 c-3 -8 -6 -5 -6 6 -1 11 2 17 5 13 3 -3 4 -12 1
-19z m840 -10 c-15 -9 -19 -4 -11 16 5 14 9 15 15 5 5 -8 3 -17 -4 -21z m300
10 c29 -7 53 -18 53 -24 0 -12 -140 -35 -200 -33 -35 1 -7 7 119 25 54 7 43
22 -24 30 -28 3 -52 7 -54 10 -9 8 55 4 106 -8z m-1192 -7 c-16 -4 -29 -13
-27 -20 3 -14 -29 -11 -40 4 -9 12 25 23 67 23 l30 0 -30 -7z m78 -18 c-7 -2
-19 -2 -25 0 -7 3 -2 5 12 5 14 0 19 -2 13 -5z m851 -2 c4 -5 -3 -7 -14 -4
-23 6 -26 13 -6 13 8 0 17 -4 20 -9z m-844 -23 c0 -10 -26 -9 -60 2 -20 6 -17
7 18 7 23 -1 42 -5 42 -9z m37 -4 c-3 -3 -12 -4 -19 -1 -8 3 -5 6 6 6 11 1 17
-2 13 -5z m119 -7 c3 -2 -18 -5 -46 -6 -28 0 -49 3 -46 7 5 8 84 8 92 -1z
m764 -3 c0 -2 -19 -4 -42 -3 -35 1 -38 2 -18 8 23 7 60 4 60 -5z m-240 -10 c0
-2 -12 -4 -27 -4 -21 0 -24 3 -14 9 13 8 41 5 41 -5z m140 7 c0 -4 -11 -6 -25
-3 -14 2 -25 6 -25 8 0 2 11 4 25 4 14 0 25 -4 25 -9z m-163 -93 c-3 -8 -6 -5
-6 6 -1 11 2 17 5 13 3 -3 4 -12 1 -19z"/>
<path d="M1515 1171 c3 -5 -2 -17 -11 -26 -9 -9 -18 -33 -20 -53 -3 -20 -6
-45 -8 -54 -6 -25 10 -32 81 -38 59 -5 61 -5 51 15 l-11 20 23 -20 c20 -17 22
-17 17 -3 -4 11 -2 15 7 12 13 -5 36 35 36 65 0 26 -49 68 -95 80 -49 13 -78
14 -70 2z m-18 -113 c-3 -8 -6 -5 -6 6 -1 11 2 17 5 13 3 -3 4 -12 1 -19z m33
-32 c0 -2 -7 -7 -16 -10 -8 -3 -12 -2 -9 4 6 10 25 14 25 6z"/>
<path d="M1465 750 c27 -12 43 -12 25 0 -8 5 -22 9 -30 9 -10 0 -8 -3 5 -9z"/>
<path d="M1529 408 c-7 -26 -7 -48 2 -48 5 0 7 5 4 10 -3 6 0 10 7 10 10 0 10
2 -1 9 -11 7 -11 9 0 14 10 4 10 6 2 6 -7 1 -13 0 -14 -1z"/>
</g>
</svg>
